<?xml version="1.0" encoding="utf-8"?>
<!-- Generator: Adobe Illustrator 25.3.1, SVG Export Plug-In . SVG Version: 6.00 Build 0)  -->
<svg version="1.0" id="Layer_1" xmlns="http://www.w3.org/2000/svg" xmlns:xlink="http://www.w3.org/1999/xlink" x="0px" y="0px"
	 viewBox="0 0 1000 370.2" style="enable-background:new 0 0 1000 370.2;" xml:space="preserve">
<style type="text/css">
	.st0{fill:#FFFFFF;}
	.st1{filter:url(#Adobe_OpacityMaskFilter);}
	.st2{fill:url(#SVGID_2_);}
	.st3{mask:url(#SVGID_1_);}
	.st4{fill:none;}
	.st5{fill:#03BCED;}
	.st6{fill:#0389E5;}
	.st7{fill:#0074FF;}
	.st8{fill:#0047B8;}
	.st9{fill-rule:evenodd;clip-rule:evenodd;fill:#808080;}
	.st10{fill:none;stroke:#808080;stroke-width:2;stroke-miterlimit:10;}
</style>
<rect class="st0" width="1000" height="370.2"/>
<defs>
	<filter id="Adobe_OpacityMaskFilter" filterUnits="userSpaceOnUse" x="88.4" y="0.4" width="911.6" height="354.3">
		<feColorMatrix  type="matrix" values="1 0 0 0 0  0 1 0 0 0  0 0 1 0 0  0 0 0 1 0"/>
	</filter>
</defs>
<mask maskUnits="userSpaceOnUse" x="88.4" y="0.4" width="911.6" height="354.3" id="SVGID_1_">
	<g id="gradient" class="st1">
		<linearGradient id="SVGID_2_" gradientUnits="userSpaceOnUse" x1="76.141" y1="180.1678" x2="1000" y2="180.1678">
			<stop  offset="0.4696" style="stop-color:#FFFFFF"/>
			<stop  offset="0.6156" style="stop-color:#AAAAAA"/>
			<stop  offset="0.7541" style="stop-color:#616161"/>
			<stop  offset="0.868" style="stop-color:#2D2D2D"/>
			<stop  offset="0.9532" style="stop-color:#0C0C0C"/>
			<stop  offset="1" style="stop-color:#000000"/>
		</linearGradient>
		<path class="st2" d="M1000,360.3H76.1V0H1000V360.3z"/>
	</g>
</mask>
<g class="st3">
	<g>
		<g>
			<g>
				<path class="st4" d="M318.2,239.8h-60c0,10.9-3.2,21.5-9.2,30.5c-6,9-14.7,16.2-24.7,20.3c-2.5,1-5,1.8-7.6,2.5
					c-2.6,0.7-5.3,1.1-7.9,1.4c-2.7,0.2-5.4,0.3-8.1,0.2c-2.7-0.2-5.4-0.5-8-1c-10.5-2.1-20.4-7.4-28.1-15c-7.7-7.7-13-17.5-15-28.1
					c-0.5-2.6-0.8-5.3-1-8c-0.1-2.7,0-5.4,0.2-8.1c0.3-2.7,0.7-5.3,1.4-7.9c0.7-2.6,1.5-5.2,2.5-7.6c4.1-9.9,11.3-18.7,20.3-24.7
					c9-6,19.6-9.2,30.5-9.2v-60c-5.6,0.1-11.2,0.4-16.8,1.2c-5.6,0.9-11.1,2-16.5,3.7c-5.4,1.7-10.7,3.7-15.8,6.1
					c-5.1,2.4-10,5.2-14.7,8.3c-18.8,12.5-33.7,30.6-42.3,51.5c-2.2,5.2-3.9,10.6-5.3,16.1c-1.4,5.5-2.3,11.1-2.9,16.7
					c-0.5,5.6-0.6,11.2-0.4,16.8c0.3,5.6,1,11.2,2.1,16.8c1.1,5.5,2.6,11,4.5,16.3c1.9,5.3,4.2,10.5,6.9,15.5
					c2.7,5,5.7,9.7,9.1,14.3c3.4,4.5,7.1,8.8,11,12.8c4,4,8.3,7.6,12.8,11c4.5,3.4,9.3,6.4,14.3,9.1c5,2.7,10.2,4.9,15.5,6.9
					c5.3,1.9,10.8,3.4,16.3,4.5c5.5,1.1,11.2,1.7,16.8,2.1c5.6,0.2,11.2,0.1,16.8-0.4c5.6-0.6,11.2-1.5,16.7-2.9
					c5.5-1.4,10.9-3.1,16.1-5.3c20.9-8.6,39-23.5,51.5-42.3c3.1-4.7,5.9-9.6,8.3-14.7c2.4-5.1,4.4-10.4,6.1-15.8
					c1.7-5.4,2.8-10.9,3.7-16.5C317.8,251.1,318.2,245.4,318.2,239.8z"/>
				<path class="st5" d="M314.2,239.8h4c-0.1,5.6-0.4,11.2-1.2,16.8c-0.9,5.6-2,11.1-3.7,16.5c-1.7,5.4-3.7,10.7-6.1,15.8
					c-2.4,5.1-5.2,10-8.3,14.7c-12.5,18.8-30.6,33.7-51.5,42.3c-5.2,2.2-10.6,3.9-16.1,5.3c-5.5,1.4-11.1,2.3-16.7,2.9
					c-5.6,0.5-11.2,0.6-16.8,0.4c-5.6-0.3-11.2-1-16.8-2.1c-5.5-1.1-11-2.6-16.3-4.5c-5.3-1.9-10.5-4.2-15.5-6.9
					c-5-2.7-9.7-5.7-14.3-9.1c-4.5-3.4-8.8-7.1-12.8-11c-4-4-7.6-8.3-11-12.8c-3.4-4.5-6.4-9.3-9.1-14.3c-2.7-5-4.9-10.2-6.9-15.5
					c-1.9-5.3-3.4-10.8-4.5-16.3c-1.1-5.5-1.7-11.2-2.1-16.8c-0.2-5.6-0.1-11.2,0.4-16.8c0.6-5.6,1.5-11.2,2.9-16.7
					c1.4-5.5,3.1-10.9,5.3-16.1c8.6-20.9,23.5-39,42.3-51.5c4.7-3.1,9.6-5.9,14.7-8.3c5.1-2.4,10.4-4.4,15.8-6.1
					c5.4-1.7,10.9-2.8,16.5-3.7c5.6-0.8,11.2-1.2,16.8-1.2v4c-5.4,0.1-10.9,0.4-16.2,1.2c-5.4,0.8-10.7,2-15.9,3.6
					c-5.2,1.6-10.3,3.5-15.2,5.9c-4.9,2.4-9.7,5-14.2,8.1c-18.1,12.1-32.5,29.6-40.8,49.7c-2.1,5-3.8,10.2-5.1,15.5
					c-1.3,5.3-2.2,10.7-2.8,16.1c-0.5,5.4-0.6,10.8-0.4,16.3c0.3,5.4,0.9,10.8,2,16.2c1.1,5.3,2.5,10.6,4.4,15.8
					c1.9,5.1,4,10.1,6.6,14.9c2.6,4.8,5.5,9.4,8.7,13.8c3.3,4.4,6.8,8.5,10.6,12.3c3.9,3.8,8,7.4,12.3,10.6c4.4,3.2,9,6.1,13.8,8.7
					c4.8,2.6,9.8,4.8,14.9,6.6c5.1,1.9,10.4,3.3,15.8,4.4c5.3,1.1,10.8,1.7,16.2,2c5.4,0.2,10.8,0.1,16.3-0.4
					c5.4-0.6,10.8-1.4,16.1-2.8c5.3-1.4,10.5-3,15.5-5.1c20.2-8.3,37.7-22.7,49.7-40.8c3-4.5,5.7-9.3,8.1-14.2
					c2.3-4.9,4.3-10,5.9-15.2c1.6-5.2,2.7-10.6,3.6-15.9C313.8,250.7,314.2,245.3,314.2,239.8z"/>
				<g>
					<path class="st0" d="M310.2,239.8h4c-0.1,5.4-0.4,10.9-1.2,16.2c-0.8,5.4-2,10.7-3.6,15.9c-1.6,5.2-3.5,10.3-5.9,15.2
						c-2.4,4.9-5,9.7-8.1,14.2c-12.1,18.1-29.6,32.5-49.7,40.8c-5,2.1-10.2,3.8-15.5,5.1c-5.3,1.3-10.7,2.2-16.1,2.8
						c-5.4,0.5-10.8,0.6-16.3,0.4c-5.4-0.3-10.8-0.9-16.2-2c-5.3-1.1-10.6-2.5-15.8-4.4c-5.1-1.9-10.1-4-14.9-6.6
						c-4.8-2.6-9.4-5.5-13.8-8.7c-4.4-3.3-8.5-6.8-12.3-10.6c-3.8-3.9-7.4-8-10.6-12.3c-3.2-4.4-6.1-9-8.7-13.8
						c-2.6-4.8-4.8-9.8-6.6-14.9c-1.9-5.1-3.3-10.4-4.4-15.8c-1.1-5.3-1.7-10.8-2-16.2c-0.2-5.4-0.1-10.8,0.4-16.3
						c0.6-5.4,1.4-10.8,2.8-16.1c1.4-5.3,3-10.5,5.1-15.5c8.3-20.2,22.7-37.7,40.8-49.7c4.5-3,9.3-5.7,14.2-8.1
						c4.9-2.3,10-4.3,15.2-5.9c5.2-1.6,10.6-2.7,15.9-3.6c5.4-0.8,10.8-1.1,16.2-1.2v4c-5.2,0.1-10.5,0.4-15.7,1.2
						c-5.2,0.8-10.3,1.9-15.4,3.4c-5,1.6-10,3.4-14.7,5.7c-4.7,2.3-9.3,4.8-13.7,7.8c-17.5,11.6-31.3,28.5-39.4,48
						c-2,4.8-3.6,9.9-4.9,15c-1.3,5.1-2.1,10.3-2.7,15.5c-0.5,5.2-0.6,10.5-0.4,15.7c0.3,5.2,0.9,10.5,1.9,15.6
						c4,20.6,14.4,40,29.3,54.8c14.8,14.8,34.1,25.2,54.8,29.3c5.2,1,10.4,1.6,15.6,1.9c5.2,0.2,10.5,0.1,15.7-0.4
						c5.2-0.6,10.4-1.4,15.5-2.7c5.1-1.3,10.1-2.9,15-4.9c19.4-8,36.3-21.9,48-39.4c2.9-4.4,5.5-9,7.8-13.7
						c2.3-4.7,4.1-9.7,5.7-14.7c1.5-5,2.6-10.2,3.4-15.4C309.8,250.3,310.2,245.1,310.2,239.8z"/>
				</g>
				<path class="st6" d="M306.2,239.8h4c-0.1,5.2-0.4,10.5-1.2,15.7c-0.8,5.2-1.9,10.3-3.4,15.4c-1.6,5-3.4,10-5.7,14.7
					c-2.3,4.7-4.8,9.3-7.8,13.7c-11.6,17.5-28.5,31.3-48,39.4c-4.8,2-9.9,3.6-15,4.9c-5.1,1.3-10.3,2.1-15.5,2.7
					c-5.2,0.5-10.5,0.6-15.7,0.4c-5.2-0.3-10.5-0.9-15.6-1.9c-20.6-4-40-14.4-54.8-29.3c-14.8-14.8-25.2-34.1-29.3-54.8
					c-1-5.2-1.6-10.4-1.9-15.6c-0.2-5.2-0.1-10.5,0.4-15.7c0.6-5.2,1.4-10.4,2.7-15.5c1.3-5.1,2.9-10.1,4.9-15
					c8-19.4,21.9-36.3,39.4-48c4.4-2.9,9-5.5,13.7-7.8c4.7-2.3,9.7-4.1,14.7-5.7c5-1.5,10.2-2.6,15.4-3.4c5.2-0.8,10.4-1.1,15.7-1.2
					v4c-5,0.1-10.1,0.4-15.1,1.1c-5,0.8-9.9,1.8-14.8,3.3c-4.8,1.5-9.6,3.3-14.1,5.5c-4.6,2.2-9,4.7-13.2,7.5
					c-16.8,11.2-30.2,27.5-37.9,46.2c-2,4.7-3.5,9.5-4.8,14.4c-1.2,4.9-2,9.9-2.6,14.9c-0.5,5-0.6,10.1-0.4,15.1
					c0.3,5,0.9,10.1,1.8,15c3.9,19.9,13.9,38.5,28.2,52.7c14.2,14.3,32.8,24.3,52.7,28.2c5,1,10,1.6,15,1.8c5,0.2,10.1,0.1,15.1-0.4
					c5-0.5,10-1.3,14.9-2.6c4.9-1.3,9.7-2.8,14.4-4.8c18.7-7.7,35-21.1,46.2-37.9c2.8-4.2,5.3-8.6,7.5-13.2c2.2-4.6,4-9.3,5.5-14.1
					c1.5-4.8,2.5-9.8,3.3-14.8C305.8,249.9,306.2,244.9,306.2,239.8z"/>
				<g>
					<path class="st0" d="M302.2,239.8h4c-0.1,5-0.4,10.1-1.1,15.1c-0.8,5-1.8,9.9-3.3,14.8c-1.5,4.8-3.3,9.6-5.5,14.1
						c-2.2,4.6-4.7,9-7.5,13.2c-11.2,16.8-27.5,30.2-46.2,37.9c-4.7,2-9.5,3.5-14.4,4.8c-4.9,1.2-9.9,2-14.9,2.6
						c-5,0.5-10.1,0.6-15.1,0.4c-5-0.3-10.1-0.9-15-1.8c-19.9-3.9-38.5-13.9-52.7-28.2c-14.3-14.2-24.3-32.8-28.2-52.7
						c-1-5-1.6-10-1.8-15c-0.2-5-0.1-10.1,0.4-15.1c0.5-5,1.3-10,2.6-14.9c1.3-4.9,2.8-9.7,4.8-14.4c7.7-18.7,21.1-35,37.9-46.2
						c4.2-2.8,8.6-5.3,13.2-7.5c4.6-2.2,9.3-4,14.1-5.5c4.8-1.5,9.8-2.5,14.8-3.3c5-0.7,10-1.1,15.1-1.1v4
						c-4.8,0.1-9.7,0.4-14.5,1.1c-4.8,0.7-9.6,1.8-14.2,3.2c-4.6,1.4-9.2,3.1-13.6,5.2c-4.4,2.1-8.6,4.5-12.7,7.2
						c-16.2,10.8-29,26.4-36.4,44.4c-1.9,4.5-3.4,9.1-4.6,13.8c-1.2,4.7-2,9.5-2.5,14.3c-0.5,4.8-0.6,9.7-0.4,14.5
						c0.3,4.8,0.8,9.7,1.8,14.4c3.7,19.1,13.3,36.9,27.1,50.6c13.7,13.7,31.6,23.3,50.6,27.1c4.8,1,9.6,1.5,14.4,1.8
						c4.8,0.2,9.7,0.1,14.5-0.4c4.8-0.5,9.6-1.3,14.3-2.5c4.7-1.2,9.3-2.7,13.8-4.6c18-7.4,33.6-20.3,44.4-36.4
						c2.7-4,5.1-8.3,7.2-12.7c2.1-4.4,3.8-8.9,5.2-13.6c1.4-4.6,2.4-9.4,3.2-14.2C301.9,249.5,302.2,244.7,302.2,239.8z"/>
				</g>
				<path class="st7" d="M298.2,239.8h4c-0.1,4.8-0.4,9.7-1.1,14.5c-0.7,4.8-1.8,9.6-3.2,14.2c-1.4,4.6-3.1,9.2-5.2,13.6
					c-2.1,4.4-4.5,8.6-7.2,12.7c-10.8,16.2-26.4,29-44.4,36.4c-4.5,1.9-9.1,3.4-13.8,4.6c-4.7,1.2-9.5,2-14.3,2.5
					c-4.8,0.5-9.7,0.6-14.5,0.4c-4.8-0.3-9.7-0.8-14.4-1.8c-19.1-3.7-36.9-13.3-50.6-27.1c-13.7-13.7-23.3-31.6-27.1-50.6
					c-1-4.8-1.5-9.6-1.8-14.4c-0.2-4.8-0.1-9.7,0.4-14.5c0.5-4.8,1.3-9.6,2.5-14.3c1.2-4.7,2.7-9.3,4.6-13.8
					c7.4-18,20.3-33.6,36.4-44.4c4-2.7,8.3-5.1,12.7-7.2c4.4-2.1,8.9-3.8,13.6-5.2c4.6-1.4,9.4-2.4,14.2-3.2c4.8-0.7,9.7-1,14.5-1.1
					v4c-4.6,0.1-9.3,0.3-13.9,1c-4.6,0.7-9.2,1.7-13.6,3.1c-4.4,1.4-8.8,3-13,5c-4.2,2-8.3,4.3-12.1,6.9
					c-15.5,10.3-27.8,25.3-35,42.6c-1.8,4.3-3.2,8.8-4.4,13.3c-1.1,4.5-1.9,9.1-2.4,13.8c-0.4,4.6-0.5,9.3-0.3,13.9
					c0.3,4.6,0.8,9.3,1.7,13.9c3.6,18.3,12.8,35.4,26,48.6c13.1,13.2,30.3,22.4,48.6,26c4.6,0.9,9.2,1.4,13.9,1.7
					c4.6,0.2,9.3,0.1,13.9-0.3c4.6-0.5,9.2-1.2,13.8-2.4c4.5-1.2,9-2.6,13.3-4.4c17.2-7.1,32.2-19.4,42.6-35
					c2.6-3.9,4.9-7.9,6.9-12.1c2-4.2,3.6-8.6,5-13c1.4-4.5,2.3-9,3.1-13.6C297.9,249.1,298.2,244.5,298.2,239.8z"/>
				<g>
					<path class="st0" d="M294.2,239.8h4c-0.1,4.6-0.3,9.3-1,13.9c-0.7,4.6-1.7,9.2-3.1,13.6c-1.4,4.4-3,8.8-5,13
						c-2,4.2-4.3,8.3-6.9,12.1c-10.3,15.5-25.3,27.8-42.6,35c-4.3,1.8-8.8,3.2-13.3,4.4c-4.5,1.1-9.1,1.9-13.8,2.4
						c-4.6,0.4-9.3,0.5-13.9,0.3c-4.6-0.3-9.3-0.8-13.9-1.7c-18.3-3.6-35.4-12.8-48.6-26c-13.2-13.1-22.4-30.3-26-48.6
						c-0.9-4.6-1.4-9.2-1.7-13.9c-0.2-4.6-0.1-9.3,0.3-13.9c0.5-4.6,1.2-9.2,2.4-13.8c1.2-4.5,2.6-9,4.4-13.3
						c7.1-17.2,19.4-32.2,35-42.6c3.9-2.6,7.9-4.9,12.1-6.9c4.2-2,8.6-3.6,13-5c4.5-1.4,9-2.3,13.6-3.1c4.6-0.7,9.3-1,13.9-1v4
						c-4.5,0.1-8.9,0.3-13.3,1c-4.4,0.7-8.8,1.6-13.1,2.9c-4.3,1.3-8.5,2.9-12.5,4.8c-4,1.9-7.9,4.1-11.6,6.6
						c-14.9,9.9-26.7,24.3-33.5,40.8c-6.9,16.5-8.7,35-5.2,52.5c3.4,17.5,12.2,33.9,24.9,46.5c12.6,12.6,29,21.4,46.5,24.9
						c17.5,3.5,36,1.7,52.5-5.2c16.5-6.8,30.9-18.6,40.8-33.5c2.5-3.7,4.7-7.6,6.6-11.6c1.9-4,3.5-8.2,4.8-12.5
						c1.3-4.3,2.2-8.6,2.9-13.1C293.9,248.7,294.2,244.3,294.2,239.8z"/>
				</g>
				<path class="st8" d="M290.2,239.8h4c-0.1,4.5-0.3,8.9-1,13.3c-0.7,4.4-1.6,8.8-2.9,13.1c-1.3,4.3-2.9,8.5-4.8,12.5
					c-1.9,4-4.1,7.9-6.6,11.6c-9.9,14.9-24.3,26.7-40.8,33.5c-16.5,6.9-35,8.7-52.5,5.2c-17.5-3.4-33.9-12.2-46.5-24.9
					c-12.6-12.6-21.4-29-24.9-46.5c-3.5-17.5-1.7-36,5.2-52.5c6.8-16.5,18.6-30.9,33.5-40.8c3.7-2.5,7.6-4.7,11.6-6.6
					c4-1.9,8.2-3.5,12.5-4.8c4.3-1.3,8.6-2.2,13.1-2.9c4.4-0.7,8.9-0.9,13.3-1v4c-4.3,0.1-8.5,0.3-12.7,0.9
					c-4.2,0.7-8.4,1.5-12.5,2.8c-4.1,1.3-8.1,2.8-11.9,4.6c-3.8,1.9-7.6,3.9-11.1,6.3c-14.2,9.5-25.5,23.2-32,39
					c-6.6,15.8-8.3,33.5-4.9,50.2c3.3,16.8,11.7,32.4,23.8,44.5c12.1,12.1,27.7,20.5,44.5,23.8c16.7,3.3,34.4,1.6,50.2-4.9
					c15.8-6.5,29.5-17.8,39-32c2.4-3.5,4.5-7.3,6.3-11.1c1.8-3.9,3.3-7.9,4.6-11.9c1.3-4.1,2.1-8.3,2.8-12.5
					C289.9,248.4,290.2,244.1,290.2,239.8z"/>
				<g>
					<path class="st0" d="M286.2,239.8h4c-0.1,4.3-0.3,8.5-0.9,12.7c-0.7,4.2-1.5,8.4-2.8,12.5c-1.3,4.1-2.8,8.1-4.6,11.9
						c-1.9,3.8-3.9,7.6-6.3,11.1c-9.5,14.2-23.2,25.5-39,32c-15.8,6.6-33.5,8.3-50.2,4.9c-16.8-3.3-32.4-11.7-44.5-23.8
						c-12.1-12.1-20.5-27.7-23.8-44.5c-3.3-16.7-1.6-34.4,4.9-50.2c6.5-15.8,17.8-29.5,32-39c3.5-2.4,7.3-4.5,11.1-6.3
						c3.9-1.8,7.9-3.3,11.9-4.6c4.1-1.3,8.3-2.1,12.5-2.8c4.2-0.6,8.5-0.9,12.7-0.9v4c-16.3,0-32.5,4.9-46.1,14
						c-13.6,9-24.3,22.2-30.5,37.2c-6.3,15-7.9,31.9-4.7,47.9c3.1,16,11.2,30.9,22.7,42.4c11.5,11.5,26.5,19.6,42.4,22.7
						c16,3.2,32.9,1.5,47.9-4.7c15-6.2,28.2-17,37.2-30.5C281.3,272.4,286.2,256.1,286.2,239.8z"/>
				</g>
				<path class="st5" d="M282.2,239.8h4c0,16.3-4.9,32.5-14,46.1c-9,13.6-22.2,24.3-37.2,30.5c-15,6.3-31.9,7.9-47.9,4.7
					c-16-3.1-30.9-11.2-42.4-22.7C133.2,286.9,125.1,272,122,256c-3.2-16-1.5-32.9,4.7-47.9c6.2-15,17-28.2,30.5-37.2
					c13.5-9.1,29.8-14,46.1-14v4c-15.5,0-31,4.6-43.8,13.3c-12.9,8.6-23.2,21.1-29.1,35.4c-6,14.3-7.5,30.4-4.5,45.6
					c3,15.2,10.6,29.4,21.6,40.4c11,11,25.2,18.6,40.4,21.6c15.2,3,31.3,1.5,45.6-4.5c14.3-5.9,26.8-16.2,35.4-29.1
					C277.6,270.8,282.2,255.4,282.2,239.8z"/>
				<g>
					<path class="st0" d="M278.2,239.8h4c0,15.5-4.6,31-13.3,43.8c-8.6,12.9-21.1,23.2-35.4,29.1c-14.3,6-30.4,7.5-45.6,4.5
						c-15.2-3-29.4-10.6-40.4-21.6c-11-11-18.6-25.2-21.6-40.4c-3-15.2-1.5-31.3,4.5-45.6c5.9-14.3,16.2-26.8,29.1-35.4
						c12.9-8.7,28.3-13.3,43.8-13.3v4c-14.7,0-29.4,4.4-41.6,12.6c-12.3,8.2-22,20-27.6,33.6c-1.4,3.4-2.5,6.9-3.5,10.5
						c-0.9,3.6-1.5,7.2-1.9,10.9c-0.3,3.7-0.4,7.4-0.3,11c0.2,3.7,0.6,7.3,1.3,10.9c2.8,14.4,10.1,27.9,20.5,38.3
						c10.4,10.4,23.9,17.7,38.3,20.5c3.6,0.7,7.3,1.1,10.9,1.3c3.7,0.1,7.4,0.1,11-0.3c3.7-0.4,7.3-1,10.9-1.9
						c3.6-0.9,7.1-2,10.5-3.5c13.6-5.6,25.5-15.4,33.6-27.6C273.8,269.2,278.2,254.6,278.2,239.8z"/>
				</g>
				<path class="st6" d="M274.2,239.8h4c0,14.7-4.4,29.4-12.6,41.6c-8.2,12.3-20,22-33.6,27.6c-3.4,1.4-6.9,2.5-10.5,3.5
					c-3.6,0.9-7.2,1.5-10.9,1.9c-3.7,0.3-7.4,0.4-11,0.3c-3.7-0.2-7.3-0.6-10.9-1.3c-14.4-2.8-27.9-10.1-38.3-20.5
					c-10.4-10.4-17.7-23.9-20.5-38.3c-0.7-3.6-1.1-7.3-1.3-10.9c-0.1-3.7-0.1-7.4,0.3-11c0.4-3.7,1-7.3,1.9-10.9
					c0.9-3.6,2-7.1,3.5-10.5c5.6-13.6,15.4-25.5,27.6-33.6c12.2-8.2,26.9-12.6,41.6-12.6v4c-14,0-27.8,4.2-39.4,11.9
					c-11.6,7.7-20.8,19-26.1,31.8c-1.3,3.2-2.4,6.5-3.3,9.9c-0.9,3.4-1.4,6.8-1.8,10.3c-0.3,3.5-0.4,7-0.3,10.5
					c0.2,3.5,0.6,6.9,1.3,10.4c2.7,13.6,9.5,26.4,19.4,36.3c9.9,9.9,22.6,16.7,36.3,19.4c3.4,0.7,6.9,1.1,10.4,1.3
					c3.5,0.1,7,0.1,10.5-0.3c3.5-0.4,6.9-0.9,10.3-1.8c3.4-0.9,6.7-1.9,9.9-3.3c12.9-5.3,24.1-14.5,31.8-26.1
					C270,267.6,274.2,253.8,274.2,239.8z"/>
				<g>
					<path class="st0" d="M270.2,239.8h4c0,14-4.2,27.8-11.9,39.4c-7.7,11.6-19,20.8-31.8,26.1c-3.2,1.3-6.5,2.4-9.9,3.3
						c-3.4,0.9-6.8,1.4-10.3,1.8c-3.5,0.3-7,0.4-10.5,0.3c-3.5-0.2-6.9-0.6-10.4-1.3c-13.6-2.7-26.4-9.5-36.3-19.4
						c-9.9-9.9-16.7-22.6-19.4-36.3c-0.7-3.4-1.1-6.9-1.3-10.4c-0.1-3.5-0.1-7,0.3-10.5c0.4-3.5,0.9-6.9,1.8-10.3
						c0.9-3.4,1.9-6.7,3.3-9.9c5.3-12.9,14.5-24.1,26.1-31.8c11.6-7.8,25.4-12,39.4-11.9v4c-13.2,0-26.2,3.9-37.2,11.3
						c-10.9,7.3-19.7,17.9-24.7,30c-1.3,3-2.2,6.2-3.1,9.3c-0.8,3.2-1.3,6.4-1.7,9.7c-0.3,3.3-0.4,6.6-0.2,9.9
						c0.2,3.3,0.6,6.6,1.2,9.8c2.5,12.9,9,24.9,18.3,34.2c9.3,9.3,21.4,15.8,34.2,18.3c3.2,0.6,6.5,1,9.8,1.2
						c3.3,0.1,6.6,0.1,9.9-0.2c3.3-0.4,6.5-0.9,9.7-1.7c3.2-0.8,6.3-1.8,9.3-3.1c12.1-5,22.7-13.7,30-24.7
						C266.3,266.1,270.2,253,270.2,239.8z"/>
				</g>
				<path class="st7" d="M266.2,239.8h4c0,13.2-3.9,26.2-11.3,37.2c-7.3,10.9-17.9,19.7-30,24.7c-3,1.3-6.2,2.2-9.3,3.1
					c-3.2,0.8-6.4,1.3-9.7,1.7c-3.3,0.3-6.6,0.4-9.9,0.2c-3.3-0.2-6.6-0.6-9.8-1.2c-12.9-2.5-24.9-9-34.2-18.3
					c-9.3-9.3-15.8-21.4-18.3-34.2c-0.6-3.2-1-6.5-1.2-9.8c-0.1-3.3-0.1-6.6,0.2-9.9c0.4-3.3,0.9-6.5,1.7-9.7
					c0.8-3.2,1.8-6.3,3.1-9.3c5-12.1,13.7-22.7,24.7-30c10.9-7.3,23.9-11.3,37.2-11.3v4c-12.4,0-24.6,3.7-34.9,10.6
					c-10.3,6.8-18.5,16.9-23.2,28.2c-1.2,2.8-2.1,5.8-2.9,8.8c-0.8,3-1.2,6-1.6,9.1c-0.3,3.1-0.3,6.2-0.2,9.3
					c0.2,3.1,0.5,6.2,1.1,9.2c2.4,12.1,8.4,23.4,17.2,32.2c8.8,8.8,20.1,14.8,32.2,17.2c3,0.6,6.1,0.9,9.2,1.1
					c3.1,0.1,6.2,0.1,9.3-0.2c3.1-0.3,6.1-0.8,9.1-1.6c3-0.8,5.9-1.7,8.8-2.9c11.4-4.7,21.4-12.9,28.2-23.2
					C262.5,264.5,266.2,252.3,266.2,239.8z"/>
				<g>
					<path class="st0" d="M262.2,239.8h4c0,12.4-3.7,24.6-10.6,34.9c-6.8,10.3-16.9,18.5-28.2,23.2c-2.8,1.2-5.8,2.1-8.8,2.9
						c-3,0.8-6,1.2-9.1,1.6c-3.1,0.3-6.2,0.3-9.3,0.2c-3.1-0.2-6.2-0.5-9.2-1.1c-12.1-2.4-23.4-8.4-32.2-17.2
						c-8.8-8.8-14.8-20.1-17.2-32.2c-0.6-3-0.9-6.1-1.1-9.2c-0.1-3.1-0.1-6.2,0.2-9.3c0.3-3.1,0.8-6.1,1.6-9.1
						c0.8-3,1.7-5.9,2.9-8.8c4.7-11.4,12.9-21.4,23.2-28.2c10.3-6.9,22.5-10.6,34.9-10.6v4c-11.7,0-23.1,3.5-32.7,9.9
						c-9.6,6.4-17.3,15.8-21.7,26.5c-1.1,2.7-2,5.4-2.7,8.2c-0.7,2.8-1.1,5.7-1.5,8.5c-0.3,2.9-0.3,5.8-0.2,8.7
						c0.2,2.9,0.5,5.8,1.1,8.6c2.2,11.3,7.9,21.9,16.1,30.1c8.2,8.2,18.8,13.9,30.1,16.1c2.8,0.6,5.7,0.9,8.6,1.1
						c2.9,0.1,5.8,0.1,8.7-0.2c2.9-0.3,5.7-0.8,8.5-1.5c2.8-0.7,5.5-1.6,8.2-2.7c10.7-4.4,20-12.1,26.5-21.7
						C258.8,262.9,262.2,251.5,262.2,239.8z"/>
				</g>
				<path class="st8" d="M258.2,239.8h4c0,11.7-3.5,23.1-9.9,32.7c-6.4,9.6-15.8,17.3-26.5,21.7c-2.7,1.1-5.4,2-8.2,2.7
					c-2.8,0.7-5.7,1.1-8.5,1.5c-2.9,0.3-5.8,0.3-8.7,0.2c-2.9-0.2-5.8-0.5-8.6-1.1c-11.3-2.2-21.9-7.9-30.1-16.1
					c-8.2-8.2-13.9-18.8-16.1-30.1c-0.6-2.8-0.9-5.7-1.1-8.6c-0.1-2.9-0.1-5.8,0.2-8.7c0.3-2.9,0.8-5.7,1.5-8.5
					c0.7-2.8,1.6-5.5,2.7-8.2c4.4-10.7,12.1-20,21.7-26.5c9.6-6.5,21-9.9,32.7-9.9v4c-10.9,0-21.5,3.2-30.5,9.2
					c-9,6-16.2,14.7-20.3,24.7c-1,2.5-1.8,5-2.5,7.6c-0.7,2.6-1.1,5.3-1.4,7.9c-0.2,2.7-0.3,5.4-0.2,8.1c0.2,2.7,0.5,5.4,1,8
					c2.1,10.5,7.4,20.4,15,28.1c7.7,7.7,17.5,13,28.1,15c2.6,0.5,5.3,0.8,8,1c2.7,0.1,5.4,0,8.1-0.2c2.7-0.3,5.3-0.7,7.9-1.4
					c2.6-0.7,5.2-1.5,7.6-2.5c9.9-4.1,18.7-11.3,24.7-20.3C255,261.3,258.2,250.7,258.2,239.8z"/>
			</g>
		</g>
	</g>
	<g>
		<g>
			<g>
				<rect x="258.2" y="0.4" class="st4" width="60" height="239.4"/>
				<rect x="314.2" y="0.4" class="st5" width="4" height="239.4"/>
				<g>
					<rect x="310.2" y="0.4" class="st0" width="4" height="239.4"/>
				</g>
				<rect x="306.2" y="0.4" class="st6" width="4" height="239.4"/>
				<g>
					<rect x="302.2" y="0.4" class="st0" width="4" height="239.4"/>
				</g>
				<rect x="298.2" y="0.4" class="st7" width="4" height="239.4"/>
				<g>
					<rect x="294.2" y="0.4" class="st0" width="4" height="239.4"/>
				</g>
				<rect x="290.2" y="0.4" class="st8" width="4" height="239.4"/>
				<g>
					<rect x="286.2" y="0.4" class="st0" width="4" height="239.4"/>
				</g>
				<rect x="282.2" y="0.4" class="st5" width="4" height="239.4"/>
				<g>
					<rect x="278.2" y="0.4" class="st0" width="4" height="239.4"/>
				</g>
				<rect x="274.2" y="0.4" class="st6" width="4" height="239.4"/>
				<g>
					<rect x="270.2" y="0.4" class="st0" width="4" height="239.4"/>
				</g>
				<rect x="266.2" y="0.4" class="st7" width="4" height="239.4"/>
				<g>
					<rect x="262.2" y="0.4" class="st0" width="4" height="239.4"/>
				</g>
				<rect x="258.2" y="0.4" class="st8" width="4" height="239.4"/>
			</g>
		</g>
	</g>
	<g>
		<g>
			<g>
				<rect x="203.3" y="124.9" class="st4" width="796.7" height="60"/>
				<rect x="203.3" y="124.9" class="st5" width="796.7" height="4"/>
				<g>
					<rect x="203.3" y="128.9" class="st0" width="796.7" height="4"/>
				</g>
				<rect x="203.3" y="132.9" class="st6" width="796.7" height="4"/>
				<g>
					<rect x="203.3" y="136.9" class="st0" width="796.7" height="4"/>
				</g>
				<rect x="203.3" y="140.9" class="st7" width="796.7" height="4"/>
				<g>
					<rect x="203.3" y="144.9" class="st0" width="796.7" height="4"/>
				</g>
				<rect x="203.3" y="148.9" class="st8" width="796.7" height="4"/>
				<g>
					<rect x="203.3" y="152.9" class="st0" width="796.7" height="4"/>
				</g>
				<rect x="203.3" y="156.9" class="st5" width="796.7" height="4"/>
				<g>
					<rect x="203.3" y="160.9" class="st0" width="796.7" height="4"/>
				</g>
				<rect x="203.3" y="164.9" class="st6" width="796.7" height="4"/>
				<g>
					<rect x="203.3" y="168.9" class="st0" width="796.7" height="4"/>
				</g>
				<rect x="203.3" y="172.9" class="st7" width="796.7" height="4"/>
				<g>
					<rect x="203.3" y="176.9" class="st0" width="796.7" height="4"/>
				</g>
				<rect x="203.3" y="180.9" class="st8" width="796.7" height="4"/>
			</g>
		</g>
	</g>
</g>
<path class="st9" d="M706.9,303.5c-2.1,2.6-6-0.5-4.1-3.2l8.4-11.9c0.5-0.8,1.4-1.3,2.3-1.4c0.9-0.1,1.8,0.2,2.4,0.7l13.4,9.6
	c1,0.7,1.7,1.9,1.7,3.3c0,4-4.6,4.7-7,2.7l-9.7-8.1L706.9,303.5L706.9,303.5z M729.3,317.3l-2.7-3.9l6.1-4.1l1.8,3.1l12,0.6
	c3.4,0,3.4,5.2,0,5.2l-14.1,0.7C731.1,319,729.9,318.4,729.3,317.3L729.3,317.3z M732.5,299.5l1.1,1.1c1.8,1.7,1.3,4.8-2,7.2
	l-11.7,8.4l8.4,9.5c1.6,1.8,0.8,5.7-1.8,6.5l-18.1,5.5c-3.9,1.2-6.2-5.1-2-6.4l12-4.8l-9-6.9c-1.4-0.9-2.3-2.6-2.3-4.3
	c0-1.4,0.6-2.8,1.7-3.8l10.3-10.4l4.3,3.8c1,0.8,2.2,1.3,3.6,1.3c3.1,0,5.6-2.5,5.6-5.6C732.6,300.2,732.6,299.8,732.5,299.5
	L732.5,299.5z M705.3,315.3L683,340c-2.9,3.2,1.7,7.4,4.9,4.5l23.3-21.2l-2.8-2.2C706.5,319.8,705.4,317.6,705.3,315.3L705.3,315.3z
	 M739.8,286.7c3.9,0,7.1,3.2,7.1,7.1c0,3.9-3.2,7.1-7.1,7.1c-3.9,0-7.1-3.2-7.1-7.1C732.7,289.9,735.9,286.7,739.8,286.7
	L739.8,286.7z"/>
<path class="st10" d="M845.5,303.6v-7.1c0-9.6,10-17.5,22.3-17.5s22.3,7.8,22.3,17.5v7.1"/>
<path class="st10" d="M853.6,303.6v-4.4c0-7.3,6.3-13.3,14.1-13.3s14.1,5.9,14.1,13.3v4.4"/>
<path class="st10" d="M894.7,347.1h-54c-1,0-1.8-0.8-1.8-1.8v-39.5c0-1,0.8-1.8,1.8-1.8h54c1,0,1.8,0.8,1.8,1.8v39.5
	C896.5,346.3,895.7,347.1,894.7,347.1z"/>
<path class="st10" d="M871.6,347.1h-8.2c-1,0-1.8-0.8-1.8-1.8v-15c0-1,0.8-1.8,1.8-1.8h8.2c1,0,1.8,0.8,1.8,1.8v15
	C873.4,346.3,872.6,347.1,871.6,347.1z"/>
<path class="st10" d="M854.9,336.4h-4.3c-1,0-1.8-0.8-1.8-1.8v-4.4c0-1,0.8-1.8,1.8-1.8h4.3c1,0,1.8,0.8,1.8,1.8v4.4
	C856.7,335.6,855.9,336.4,854.9,336.4z"/>
<path class="st10" d="M884.2,336.4h-4.3c-1,0-1.8-0.8-1.8-1.8v-4.4c0-1,0.8-1.8,1.8-1.8h4.3c1,0,1.8,0.8,1.8,1.8v4.4
	C886,335.6,885.2,336.4,884.2,336.4z"/>
<g>
	<path class="st0" d="M833,324.3c0-0.3,0.2-0.7,0.6-0.8l33.5-14.3c0.3-0.1,0.8-0.1,1.1,0l33.4,14.3c0.3,0.1,0.6,0.5,0.6,0.8v4.5
		c0,0.3-0.2,0.5-0.6,0.4l-33.3-13.7c-0.3-0.1-0.8-0.1-1.1,0l-33.7,14.2c-0.3,0.1-0.6,0-0.6-0.4V324.3z"/>
	<path class="st10" d="M833,324.3c0-0.3,0.2-0.7,0.6-0.8l33.5-14.3c0.3-0.1,0.8-0.1,1.1,0l33.4,14.3c0.3,0.1,0.6,0.5,0.6,0.8v4.5
		c0,0.3-0.2,0.5-0.6,0.4l-33.3-13.7c-0.3-0.1-0.8-0.1-1.1,0l-33.7,14.2c-0.3,0.1-0.6,0-0.6-0.4V324.3z"/>
</g>
<g>
	<path d="M824.3,352.7h0.6v3.9c0,0.8,0.2,1.4,0.5,1.7c0.3,0.4,0.8,0.5,1.4,0.5c0.3,0,0.6,0,0.9-0.1s0.4-0.2,0.6-0.4
		c0.2-0.2,0.3-0.4,0.3-0.7s0.1-0.6,0.1-1v-3.9h0.6v4c0,0.8-0.2,1.5-0.6,1.9c-0.4,0.4-1,0.7-1.9,0.7c-0.8,0-1.5-0.2-1.9-0.7
		s-0.6-1.1-0.6-1.9V352.7z"/>
	<path d="M831.4,353.5L831.4,353.5l0,5.7h-0.6v-6.5h0.7l3.7,5.7h0v-5.7h0.6v6.5h-0.7L831.4,353.5z"/>
	<path d="M837.3,359.2v-6.5h2.2c0.2,0,0.4,0,0.5,0c0.2,0,0.3,0,0.5,0.1s0.3,0.1,0.5,0.1s0.3,0.2,0.5,0.3c0.2,0.2,0.4,0.3,0.5,0.6
		c0.1,0.2,0.2,0.5,0.3,0.7c0.1,0.2,0.1,0.5,0.2,0.8c0,0.3,0,0.5,0,0.7s0,0.4,0,0.7s-0.1,0.4-0.1,0.7c-0.1,0.2-0.1,0.4-0.2,0.6
		c-0.1,0.2-0.2,0.4-0.4,0.5c-0.2,0.2-0.3,0.3-0.5,0.4c-0.2,0.1-0.4,0.2-0.6,0.2s-0.4,0.1-0.6,0.1c-0.2,0-0.4,0-0.6,0H837.3z
		 M837.9,358.6h1.5c0.3,0,0.5,0,0.8,0c0.2,0,0.5-0.1,0.7-0.2c0.2-0.1,0.4-0.3,0.5-0.4c0.1-0.2,0.2-0.4,0.3-0.6
		c0.1-0.2,0.1-0.4,0.2-0.7c0-0.2,0-0.5,0-0.7c0-0.2,0-0.5,0-0.7c0-0.2-0.1-0.5-0.2-0.7s-0.2-0.4-0.3-0.6c-0.1-0.2-0.3-0.3-0.6-0.5
		c-0.2-0.1-0.4-0.2-0.7-0.2c-0.3,0-0.5,0-0.8,0h-1.5V358.6z"/>
	<path d="M843.8,359.2v-6.5h4.3v0.5h-3.7v2.3h3.3v0.5h-3.3v2.6h3.8v0.5H843.8z"/>
	<path d="M849.9,356.2v2.9l-0.6,0v-6.5h2.5c0.7,0,1.3,0.1,1.6,0.4c0.4,0.3,0.6,0.7,0.6,1.3c0,0.4-0.1,0.7-0.2,1
		c-0.2,0.2-0.4,0.4-0.8,0.6c0.2,0.1,0.3,0.2,0.5,0.3c0.1,0.1,0.2,0.3,0.2,0.4c0.1,0.2,0.1,0.3,0.1,0.5c0,0.2,0,0.4,0,0.5
		c0,0.2,0,0.5,0,0.6s0,0.3,0.1,0.4c0,0.1,0,0.2,0.1,0.2c0,0.1,0.1,0.1,0.1,0.1v0.1l-0.7,0c-0.1-0.1-0.1-0.3-0.1-0.5
		c0-0.2,0-0.4-0.1-0.6c0-0.2,0-0.4,0-0.6s0-0.4,0-0.5c0-0.2-0.1-0.3-0.2-0.4c-0.1-0.1-0.2-0.2-0.3-0.2c-0.1-0.1-0.2-0.1-0.4-0.1
		s-0.3,0-0.4,0H849.9z M851.8,355.7c0.2,0,0.4,0,0.6-0.1c0.2,0,0.4-0.1,0.5-0.2c0.1-0.1,0.3-0.2,0.3-0.4s0.1-0.4,0.1-0.6
		c0-0.2,0-0.4-0.1-0.6s-0.2-0.3-0.4-0.4c-0.1-0.1-0.3-0.2-0.5-0.2c-0.2,0-0.4-0.1-0.6-0.1h-1.9v2.5H851.8z"/>
	<path d="M857.8,359.2v-6.5h0.6v6h3.5v0.5H857.8z"/>
	<path d="M862.6,355.9c0-0.5,0.1-0.9,0.2-1.3c0.1-0.4,0.3-0.8,0.6-1.1s0.6-0.6,0.9-0.7s0.8-0.3,1.3-0.3c0.5,0,0.9,0.1,1.3,0.3
		c0.4,0.2,0.7,0.4,1,0.7c0.3,0.3,0.4,0.7,0.6,1.1s0.2,0.9,0.2,1.3c0,0.5-0.1,0.9-0.2,1.3s-0.3,0.8-0.6,1.1c-0.3,0.3-0.6,0.6-0.9,0.7
		c-0.4,0.2-0.8,0.3-1.3,0.3s-0.9-0.1-1.3-0.3c-0.4-0.2-0.7-0.4-0.9-0.7c-0.3-0.3-0.4-0.7-0.6-1.1S862.6,356.4,862.6,355.9z
		 M865.6,358.8c0.4,0,0.8-0.1,1.1-0.2c0.3-0.2,0.6-0.4,0.7-0.6c0.2-0.3,0.3-0.6,0.4-0.9c0.1-0.3,0.1-0.7,0.1-1.1
		c0-0.4-0.1-0.9-0.2-1.2s-0.3-0.7-0.5-0.9c-0.2-0.3-0.5-0.4-0.8-0.6c-0.3-0.1-0.6-0.2-1-0.2c-0.4,0-0.8,0.1-1.1,0.2
		s-0.6,0.4-0.7,0.6c-0.2,0.3-0.3,0.6-0.4,0.9c-0.1,0.3-0.1,0.7-0.1,1.1c0,0.4,0,0.8,0.1,1.1s0.2,0.7,0.4,0.9
		c0.2,0.3,0.4,0.5,0.7,0.6S865.2,358.8,865.6,358.8z"/>
	<path d="M874.4,354.6c-0.1-0.6-0.4-0.9-0.7-1.2c-0.3-0.2-0.8-0.4-1.3-0.4c-0.4,0-0.7,0.1-1,0.2c-0.3,0.2-0.5,0.4-0.7,0.6
		c-0.2,0.3-0.3,0.6-0.4,0.9s-0.1,0.7-0.1,1.1c0,0.4,0,0.7,0.1,1.1c0.1,0.3,0.2,0.7,0.4,0.9c0.2,0.3,0.4,0.5,0.7,0.7
		c0.3,0.2,0.7,0.3,1.1,0.3c0.3,0,0.5,0,0.8-0.1c0.2-0.1,0.4-0.2,0.6-0.4s0.3-0.3,0.4-0.6c0.1-0.2,0.2-0.5,0.3-0.7h0.6
		c-0.1,0.3-0.2,0.6-0.3,0.9c-0.1,0.3-0.3,0.5-0.5,0.7c-0.2,0.2-0.5,0.4-0.8,0.5s-0.7,0.2-1.1,0.2c-0.5,0-0.9-0.1-1.3-0.3
		c-0.4-0.2-0.6-0.4-0.9-0.7c-0.2-0.3-0.4-0.7-0.5-1.1c-0.1-0.4-0.2-0.8-0.2-1.3c0-0.6,0.1-1.1,0.2-1.6c0.2-0.4,0.4-0.8,0.6-1.1
		c0.3-0.3,0.6-0.5,1-0.6s0.8-0.2,1.2-0.2c0.3,0,0.6,0,0.9,0.1s0.5,0.2,0.8,0.4c0.2,0.2,0.4,0.4,0.5,0.6c0.1,0.3,0.2,0.6,0.3,0.9
		H874.4z"/>
	<path d="M876.4,359.2v-6.5h0.6v3.4l3.3-3.4h0.7l-2.6,2.6l3,3.9h-0.7l-2.7-3.5l-1,1v2.5H876.4z"/>
	<path d="M882.3,359.2v-6.5h2.2c0.2,0,0.4,0,0.5,0c0.2,0,0.3,0,0.5,0.1s0.3,0.1,0.5,0.1s0.3,0.2,0.5,0.3c0.2,0.2,0.4,0.3,0.5,0.6
		c0.1,0.2,0.2,0.5,0.3,0.7c0.1,0.2,0.1,0.5,0.2,0.8c0,0.3,0,0.5,0,0.7s0,0.4,0,0.7s-0.1,0.4-0.1,0.7c-0.1,0.2-0.1,0.4-0.2,0.6
		c-0.1,0.2-0.2,0.4-0.4,0.5c-0.2,0.2-0.3,0.3-0.5,0.4c-0.2,0.1-0.4,0.2-0.6,0.2s-0.4,0.1-0.6,0.1c-0.2,0-0.4,0-0.6,0H882.3z
		 M882.9,358.6h1.5c0.3,0,0.5,0,0.8,0c0.2,0,0.5-0.1,0.7-0.2c0.2-0.1,0.4-0.3,0.5-0.4c0.1-0.2,0.2-0.4,0.3-0.6
		c0.1-0.2,0.1-0.4,0.2-0.7c0-0.2,0-0.5,0-0.7c0-0.2,0-0.5,0-0.7c0-0.2-0.1-0.5-0.2-0.7s-0.2-0.4-0.3-0.6c-0.1-0.2-0.3-0.3-0.6-0.5
		c-0.2-0.1-0.4-0.2-0.7-0.2c-0.3,0-0.5,0-0.8,0h-1.5V358.6z"/>
	<path d="M888.6,355.9c0-0.5,0.1-0.9,0.2-1.3c0.1-0.4,0.3-0.8,0.6-1.1s0.6-0.6,0.9-0.7s0.8-0.3,1.3-0.3c0.5,0,0.9,0.1,1.3,0.3
		c0.4,0.2,0.7,0.4,1,0.7c0.3,0.3,0.4,0.7,0.6,1.1s0.2,0.9,0.2,1.3c0,0.5-0.1,0.9-0.2,1.3s-0.3,0.8-0.6,1.1c-0.3,0.3-0.6,0.6-0.9,0.7
		c-0.4,0.2-0.8,0.3-1.3,0.3s-0.9-0.1-1.3-0.3c-0.4-0.2-0.7-0.4-0.9-0.7c-0.3-0.3-0.4-0.7-0.6-1.1S888.6,356.4,888.6,355.9z
		 M891.6,358.8c0.4,0,0.8-0.1,1.1-0.2c0.3-0.2,0.6-0.4,0.7-0.6c0.2-0.3,0.3-0.6,0.4-0.9c0.1-0.3,0.1-0.7,0.1-1.1
		c0-0.4-0.1-0.9-0.2-1.2s-0.3-0.7-0.5-0.9c-0.2-0.3-0.5-0.4-0.8-0.6c-0.3-0.1-0.6-0.2-1-0.2c-0.4,0-0.8,0.1-1.1,0.2
		s-0.6,0.4-0.7,0.6c-0.2,0.3-0.3,0.6-0.4,0.9c-0.1,0.3-0.1,0.7-0.1,1.1c0,0.4,0,0.8,0.1,1.1s0.2,0.7,0.4,0.9
		c0.2,0.3,0.4,0.5,0.7,0.6S891.2,358.8,891.6,358.8z"/>
	<path d="M900.9,358.3L900.9,358.3l1.4-5.6h0.6l-1.7,6.5h-0.7l-1.5-5.7h0l-1.5,5.7h-0.7l-1.7-6.5h0.6l1.4,5.6h0l1.5-5.6h0.7
		L900.9,358.3z"/>
	<path d="M904.4,353.5L904.4,353.5l0,5.7h-0.6v-6.5h0.7l3.7,5.7h0v-5.7h0.6v6.5h-0.7L904.4,353.5z"/>
</g>
<g>
	<path d="M626.3,356.2v2.9l-0.6,0v-6.5h2.5c0.7,0,1.3,0.1,1.6,0.4c0.4,0.3,0.6,0.7,0.6,1.3c0,0.4-0.1,0.7-0.2,1
		c-0.2,0.2-0.4,0.4-0.8,0.6c0.2,0.1,0.3,0.2,0.5,0.3c0.1,0.1,0.2,0.3,0.2,0.4c0.1,0.2,0.1,0.3,0.1,0.5s0,0.4,0,0.5
		c0,0.2,0,0.5,0,0.6c0,0.2,0,0.3,0.1,0.4c0,0.1,0,0.2,0.1,0.2s0.1,0.1,0.1,0.1v0.1l-0.7,0c-0.1-0.1-0.1-0.3-0.1-0.5
		c0-0.2,0-0.4-0.1-0.6s0-0.4,0-0.6c0-0.2,0-0.4-0.1-0.5c0-0.2-0.1-0.3-0.2-0.4c-0.1-0.1-0.2-0.2-0.3-0.2c-0.1-0.1-0.2-0.1-0.4-0.1
		s-0.3,0-0.4,0H626.3z M628.2,355.7c0.2,0,0.4,0,0.6-0.1s0.4-0.1,0.5-0.2c0.1-0.1,0.3-0.2,0.3-0.4s0.1-0.4,0.1-0.6
		c0-0.2,0-0.4-0.1-0.6c-0.1-0.2-0.2-0.3-0.4-0.4c-0.1-0.1-0.3-0.2-0.5-0.2c-0.2,0-0.4-0.1-0.6-0.1h-1.9v2.5H628.2z"/>
	<path d="M631.1,359.2l2.5-6.5h0.7l2.5,6.5h-0.6l-0.7-2h-3l-0.8,2H631.1z M632.7,356.6h2.5l-1.3-3.4L632.7,356.6z"/>
	<path d="M637.7,359.2v-6.5h2.4c0.4,0,0.8,0,1,0.1s0.5,0.2,0.6,0.4c0.2,0.2,0.3,0.4,0.3,0.6s0.1,0.4,0.1,0.7c0,0.4-0.1,0.7-0.2,0.9
		c-0.1,0.2-0.3,0.4-0.6,0.6s-0.5,0.2-0.8,0.3c-0.3,0.1-0.6,0.1-0.9,0.1h-1.4v2.9H637.7z M639.7,355.8c0.3,0,0.5,0,0.8-0.1
		c0.2,0,0.4-0.1,0.6-0.2c0.2-0.1,0.3-0.2,0.4-0.4c0.1-0.2,0.1-0.4,0.1-0.7c0-0.4-0.1-0.7-0.4-0.9s-0.7-0.3-1.3-0.3h-1.6v2.6H639.7z"
		/>
	<path d="M643.4,359.2v-6.5h0.6v6.5H643.4z"/>
	<path d="M645.7,359.2v-6.5h2.2c0.2,0,0.4,0,0.5,0c0.2,0,0.3,0,0.5,0.1s0.3,0.1,0.5,0.1c0.2,0.1,0.3,0.2,0.5,0.3
		c0.2,0.2,0.4,0.3,0.5,0.6c0.1,0.2,0.2,0.5,0.3,0.7c0.1,0.2,0.1,0.5,0.2,0.8c0,0.3,0.1,0.5,0.1,0.7s0,0.4,0,0.7s-0.1,0.4-0.1,0.7
		s-0.1,0.4-0.2,0.6c-0.1,0.2-0.2,0.4-0.4,0.5c-0.2,0.2-0.3,0.3-0.5,0.4c-0.2,0.1-0.4,0.2-0.6,0.2s-0.4,0.1-0.6,0.1
		c-0.2,0-0.4,0-0.6,0H645.7z M646.3,358.6h1.5c0.3,0,0.5,0,0.8,0s0.5-0.1,0.7-0.2c0.2-0.1,0.4-0.3,0.5-0.4c0.1-0.2,0.2-0.4,0.3-0.6
		c0.1-0.2,0.1-0.4,0.2-0.7c0-0.2,0-0.5,0-0.7c0-0.2,0-0.5,0-0.7c0-0.2-0.1-0.5-0.2-0.7s-0.2-0.4-0.3-0.6c-0.1-0.2-0.3-0.3-0.6-0.5
		c-0.2-0.1-0.4-0.2-0.7-0.2c-0.3,0-0.5,0-0.8,0h-1.5V358.6z"/>
	<path d="M654.1,359.2l2.5-6.5h0.7l2.5,6.5h-0.6l-0.7-2h-3l-0.8,2H654.1z M655.7,356.6h2.5l-1.3-3.4L655.7,356.6z"/>
	<path d="M660.7,359.2v-6.5h2.4c0.4,0,0.8,0,1,0.1s0.5,0.2,0.6,0.4c0.2,0.2,0.3,0.4,0.3,0.6s0.1,0.4,0.1,0.7c0,0.4-0.1,0.7-0.2,0.9
		c-0.1,0.2-0.3,0.4-0.6,0.6s-0.5,0.2-0.8,0.3c-0.3,0.1-0.6,0.1-0.9,0.1h-1.4v2.9H660.7z M662.7,355.8c0.3,0,0.5,0,0.8-0.1
		c0.2,0,0.4-0.1,0.6-0.2c0.2-0.1,0.3-0.2,0.4-0.4c0.1-0.2,0.1-0.4,0.1-0.7c0-0.4-0.1-0.7-0.4-0.9s-0.7-0.3-1.3-0.3h-1.6v2.6H662.7z"
		/>
	<path d="M666.2,359.2v-6.5h2.4c0.4,0,0.8,0,1,0.1s0.5,0.2,0.6,0.4c0.2,0.2,0.3,0.4,0.3,0.6c0.1,0.2,0.1,0.4,0.1,0.7
		c0,0.4-0.1,0.7-0.2,0.9c-0.1,0.2-0.3,0.4-0.6,0.6c-0.2,0.1-0.5,0.2-0.8,0.3c-0.3,0.1-0.6,0.1-0.9,0.1h-1.4v2.9H666.2z M668.2,355.8
		c0.3,0,0.5,0,0.8-0.1c0.2,0,0.4-0.1,0.6-0.2c0.2-0.1,0.3-0.2,0.4-0.4c0.1-0.2,0.1-0.4,0.1-0.7c0-0.4-0.1-0.7-0.4-0.9
		c-0.3-0.2-0.7-0.3-1.3-0.3h-1.6v2.6H668.2z"/>
	<path d="M671.7,359.2v-6.5h0.6v6h3.5v0.5H671.7z"/>
	<path d="M677,359.2v-6.5h0.6v6.5H677z"/>
	<path d="M683.8,354.6c-0.1-0.6-0.4-0.9-0.7-1.2c-0.3-0.2-0.8-0.4-1.3-0.4c-0.4,0-0.7,0.1-1,0.2c-0.3,0.2-0.5,0.4-0.7,0.6
		c-0.2,0.3-0.3,0.6-0.4,0.9c-0.1,0.3-0.1,0.7-0.1,1.1c0,0.4,0,0.7,0.1,1.1c0.1,0.3,0.2,0.7,0.4,0.9c0.2,0.3,0.4,0.5,0.7,0.7
		s0.7,0.3,1.1,0.3c0.3,0,0.5,0,0.8-0.1s0.4-0.2,0.6-0.4c0.2-0.2,0.3-0.3,0.4-0.6c0.1-0.2,0.2-0.5,0.3-0.7h0.6
		c-0.1,0.3-0.2,0.6-0.3,0.9c-0.1,0.3-0.3,0.5-0.5,0.7c-0.2,0.2-0.5,0.4-0.8,0.5c-0.3,0.1-0.7,0.2-1.1,0.2c-0.5,0-0.9-0.1-1.3-0.3
		c-0.4-0.2-0.6-0.4-0.9-0.7c-0.2-0.3-0.4-0.7-0.5-1.1c-0.1-0.4-0.2-0.8-0.2-1.3c0-0.6,0.1-1.1,0.2-1.6c0.2-0.4,0.4-0.8,0.6-1.1
		c0.3-0.3,0.6-0.5,1-0.6c0.4-0.1,0.8-0.2,1.2-0.2c0.3,0,0.6,0,0.9,0.1s0.5,0.2,0.8,0.4c0.2,0.2,0.4,0.4,0.5,0.6s0.2,0.6,0.3,0.9
		H683.8z"/>
	<path d="M685.1,359.2l2.5-6.5h0.7l2.5,6.5h-0.6l-0.7-2h-3l-0.8,2H685.1z M686.7,356.6h2.5l-1.3-3.4L686.7,356.6z"/>
	<path d="M691.2,352.7h4.7v0.5h-2.1v6h-0.6v-6h-2.1V352.7z"/>
	<path d="M697,359.2v-6.5h0.6v6.5H697z"/>
	<path d="M699,355.9c0-0.5,0.1-0.9,0.2-1.3c0.1-0.4,0.3-0.8,0.6-1.1s0.6-0.6,0.9-0.7c0.4-0.2,0.8-0.3,1.3-0.3c0.5,0,0.9,0.1,1.3,0.3
		c0.4,0.2,0.7,0.4,1,0.7c0.3,0.3,0.4,0.7,0.6,1.1s0.2,0.9,0.2,1.3c0,0.5-0.1,0.9-0.2,1.3s-0.3,0.8-0.6,1.1c-0.3,0.3-0.6,0.6-0.9,0.7
		c-0.4,0.2-0.8,0.3-1.3,0.3s-0.9-0.1-1.3-0.3c-0.4-0.2-0.7-0.4-0.9-0.7c-0.3-0.3-0.4-0.7-0.6-1.1C699.1,356.8,699,356.4,699,355.9z
		 M702,358.8c0.4,0,0.8-0.1,1.1-0.2c0.3-0.2,0.6-0.4,0.7-0.6c0.2-0.3,0.3-0.6,0.4-0.9c0.1-0.3,0.1-0.7,0.1-1.1
		c0-0.4-0.1-0.9-0.2-1.2s-0.3-0.7-0.5-0.9c-0.2-0.3-0.5-0.4-0.8-0.6s-0.6-0.2-1-0.2c-0.4,0-0.8,0.1-1.1,0.2s-0.6,0.4-0.7,0.6
		c-0.2,0.3-0.3,0.6-0.4,0.9c-0.1,0.3-0.1,0.7-0.1,1.1c0,0.4,0,0.8,0.1,1.1c0.1,0.3,0.2,0.7,0.4,0.9s0.4,0.5,0.7,0.6
		S701.6,358.8,702,358.8z"/>
	<path d="M706.9,353.5L706.9,353.5l0,5.7h-0.6v-6.5h0.7l3.7,5.7h0v-5.7h0.6v6.5h-0.7L706.9,353.5z"/>
	<path d="M715.2,359.2v-6.5h2.2c0.2,0,0.4,0,0.5,0c0.2,0,0.3,0,0.5,0.1s0.3,0.1,0.5,0.1c0.2,0.1,0.3,0.2,0.5,0.3
		c0.2,0.2,0.4,0.3,0.5,0.6c0.1,0.2,0.2,0.5,0.3,0.7c0.1,0.2,0.1,0.5,0.2,0.8c0,0.3,0.1,0.5,0.1,0.7s0,0.4,0,0.7s-0.1,0.4-0.1,0.7
		s-0.1,0.4-0.2,0.6c-0.1,0.2-0.2,0.4-0.4,0.5c-0.2,0.2-0.3,0.3-0.5,0.4c-0.2,0.1-0.4,0.2-0.6,0.2s-0.4,0.1-0.6,0.1
		c-0.2,0-0.4,0-0.6,0H715.2z M715.9,358.6h1.5c0.3,0,0.5,0,0.8,0s0.5-0.1,0.7-0.2c0.2-0.1,0.4-0.3,0.5-0.4c0.1-0.2,0.2-0.4,0.3-0.6
		c0.1-0.2,0.1-0.4,0.2-0.7c0-0.2,0-0.5,0-0.7c0-0.2,0-0.5,0-0.7c0-0.2-0.1-0.5-0.2-0.7s-0.2-0.4-0.3-0.6c-0.1-0.2-0.3-0.3-0.6-0.5
		c-0.2-0.1-0.4-0.2-0.7-0.2c-0.3,0-0.5,0-0.8,0h-1.5V358.6z"/>
	<path d="M721.7,359.2v-6.5h4.3v0.5h-3.7v2.3h3.3v0.5h-3.3v2.6h3.8v0.5H721.7z"/>
	<path d="M726.7,352.7h0.6l2,5.8l1.9-5.8h0.6l-2.2,6.5h-0.7L726.7,352.7z"/>
	<path d="M732.7,359.2v-6.5h4.3v0.5h-3.7v2.3h3.3v0.5h-3.3v2.6h3.8v0.5H732.7z"/>
	<path d="M738.2,359.2v-6.5h0.6v6h3.5v0.5H738.2z"/>
	<path d="M743,355.9c0-0.5,0.1-0.9,0.2-1.3c0.1-0.4,0.3-0.8,0.6-1.1s0.6-0.6,0.9-0.7c0.4-0.2,0.8-0.3,1.3-0.3c0.5,0,0.9,0.1,1.3,0.3
		c0.4,0.2,0.7,0.4,1,0.7c0.3,0.3,0.4,0.7,0.6,1.1s0.2,0.9,0.2,1.3c0,0.5-0.1,0.9-0.2,1.3s-0.3,0.8-0.6,1.1c-0.3,0.3-0.6,0.6-0.9,0.7
		c-0.4,0.2-0.8,0.3-1.3,0.3s-0.9-0.1-1.3-0.3c-0.4-0.2-0.7-0.4-0.9-0.7c-0.3-0.3-0.4-0.7-0.6-1.1C743.1,356.8,743,356.4,743,355.9z
		 M746,358.8c0.4,0,0.8-0.1,1.1-0.2c0.3-0.2,0.6-0.4,0.7-0.6c0.2-0.3,0.3-0.6,0.4-0.9c0.1-0.3,0.1-0.7,0.1-1.1
		c0-0.4-0.1-0.9-0.2-1.2s-0.3-0.7-0.5-0.9c-0.2-0.3-0.5-0.4-0.8-0.6s-0.6-0.2-1-0.2c-0.4,0-0.8,0.1-1.1,0.2s-0.6,0.4-0.7,0.6
		c-0.2,0.3-0.3,0.6-0.4,0.9c-0.1,0.3-0.1,0.7-0.1,1.1c0,0.4,0,0.8,0.1,1.1c0.1,0.3,0.2,0.7,0.4,0.9s0.4,0.5,0.7,0.6
		S745.6,358.8,746,358.8z"/>
	<path d="M750.2,359.2v-6.5h2.4c0.4,0,0.8,0,1,0.1s0.5,0.2,0.6,0.4c0.2,0.2,0.3,0.4,0.3,0.6c0.1,0.2,0.1,0.4,0.1,0.7
		c0,0.4-0.1,0.7-0.2,0.9c-0.1,0.2-0.3,0.4-0.6,0.6c-0.2,0.1-0.5,0.2-0.8,0.3c-0.3,0.1-0.6,0.1-0.9,0.1h-1.4v2.9H750.2z M752.2,355.8
		c0.3,0,0.5,0,0.8-0.1c0.2,0,0.4-0.1,0.6-0.2c0.2-0.1,0.3-0.2,0.4-0.4c0.1-0.2,0.1-0.4,0.1-0.7c0-0.4-0.1-0.7-0.4-0.9
		c-0.3-0.2-0.7-0.3-1.3-0.3h-1.6v2.6H752.2z"/>
	<path d="M755.7,359.2v-6.5h0.9l2.1,5.7h0l2.1-5.7h0.9v6.5h-0.6v-5.8h0l-2.1,5.8h-0.6l-2.1-5.8h0v5.8H755.7z"/>
	<path d="M763.2,359.2v-6.5h4.3v0.5h-3.7v2.3h3.3v0.5h-3.3v2.6h3.8v0.5H763.2z"/>
	<path d="M769.4,353.5L769.4,353.5l0,5.7h-0.6v-6.5h0.7l3.7,5.7h0v-5.7h0.6v6.5h-0.7L769.4,353.5z"/>
	<path d="M774.7,352.7h4.7v0.5h-2.1v6h-0.6v-6h-2.1V352.7z"/>
</g>
</svg>
