<?xml version="1.0" encoding="utf-8"?>
<!-- Generator: Adobe Illustrator 25.3.1, SVG Export Plug-In . SVG Version: 6.00 Build 0)  -->
<svg version="1.0" id="Layer_1" xmlns="http://www.w3.org/2000/svg" xmlns:xlink="http://www.w3.org/1999/xlink" x="0px" y="0px"
	 viewBox="0 0 1000 400" style="enable-background:new 0 0 1000 400;" xml:space="preserve">
<style type="text/css">
	.sx0{fill:#FFFFFF;}
	.sx1{fill:#38B2E5;}
	.sx2{fill:#237FD9;}
	.sx3{fill:#136CF3;}
	.sx4{fill:#0042A8;}
	.sx5{fill:#999999;}
	.sx6{fill:none;stroke:#231F20;stroke-width:2;stroke-miterlimit:10;}
	.sx7{fill:none;stroke:#231F20;stroke-miterlimit:10;}
	.sx8{enable-background:new    ;}
	.sx9{fill:#FF0000;}
</style>
<g id="shapes">
	<rect id="base" x="3.9" y="0" class="sx0" width="996.1" height="400"/>
	<g id="coloured_rectangles_7_">
		<rect x="187.6" y="52.5" class="sx1" width="29.1" height="26"/>
		<rect x="131.1" y="52.5" width="29.1" height="26"/>
		<rect x="35.6" y="52.5" class="sx2" width="29.1" height="26"/>
		<rect x="87" y="52.5" class="sx3" width="29.1" height="26"/>
		<rect x="2.9" y="52.5" class="sx4" width="29.1" height="26"/>
		<rect x="87" y="21.2" class="sx5" width="29.1" height="26"/>
	</g>
</g>
<g id="horiz_x5F_lines">
	<line class="sx6" x1="3" y1="6.9" x2="996.1" y2="6.9"/>
	<line class="sx7" x1="3.2" y1="389" x2="996.3" y2="389"/>
</g>
<g id="type">
	<g class="sx8">
		<path class="sx5" d="M4.5,113.3V92.4h2v20.9H4.5z"/>
		<path class="sx5" d="M13.8,95.1L13.8,95.1l-0.1,18.2h-2V92.4H14l12.1,18.2h0.1V92.4h2v20.9h-2.3L13.8,95.1z"/>
		<path class="sx5" d="M33.6,107.1c0.1,0.9,0.3,1.7,0.6,2.4c0.3,0.7,0.8,1.2,1.3,1.6s1.2,0.7,1.8,0.9c0.7,0.2,1.4,0.3,2.2,0.3
			c0.9,0,1.7-0.1,2.4-0.3c0.7-0.2,1.2-0.6,1.7-0.9c0.4-0.4,0.7-0.9,0.9-1.4s0.3-1.1,0.3-1.7c0-0.8-0.2-1.5-0.6-2s-0.8-0.9-1.4-1.2
			c-0.6-0.3-1.3-0.6-2-0.8c-0.8-0.2-1.6-0.4-2.3-0.6s-1.6-0.4-2.3-0.7s-1.4-0.6-2-1s-1.1-1-1.4-1.6c-0.3-0.6-0.6-1.5-0.6-2.5
			c0-0.7,0.2-1.4,0.4-2.1c0.2-0.7,0.7-1.3,1.3-1.8c0.6-0.5,1.3-0.9,2.2-1.2S38,92,39.2,92s2.2,0.2,3.1,0.5c0.9,0.3,1.6,0.8,2.2,1.3
			s1,1.2,1.3,2s0.4,1.6,0.4,2.4h-1.9c0-0.8-0.1-1.5-0.4-2.1s-0.7-1.1-1.2-1.4s-1-0.6-1.7-0.8s-1.3-0.3-1.9-0.3c-1,0-1.8,0.1-2.5,0.4
			s-1.2,0.6-1.6,1.1c-0.4,0.4-0.7,0.9-0.8,1.5s-0.2,1.1-0.1,1.6c0.1,0.7,0.4,1.2,0.8,1.6c0.4,0.4,0.9,0.7,1.6,1s1.3,0.5,2,0.6
			s1.5,0.3,2.3,0.5s1.5,0.4,2.2,0.7c0.7,0.2,1.4,0.6,1.9,1c0.6,0.4,1,1,1.3,1.6s0.5,1.5,0.5,2.5c0,1.9-0.7,3.4-2,4.5
			s-3.2,1.6-5.6,1.6c-1.1,0-2.1-0.1-3-0.4s-1.7-0.7-2.4-1.3c-0.7-0.6-1.2-1.3-1.6-2.1c-0.4-0.8-0.6-1.8-0.6-3
			C31.7,107.1,33.6,107.1,33.6,107.1z"/>
		<path class="sx5" d="M51.2,113.3V92.4h2v20.9H51.2z"/>
		<path class="sx5" d="M67.4,104.2v-1.7h8.9v10.8h-1.7v-3.6c-0.4,0.6-0.8,1.2-1.3,1.7s-1,0.9-1.6,1.3s-1.3,0.6-2.2,0.8
			c-0.8,0.2-1.7,0.3-2.8,0.3c-1.3,0-2.5-0.2-3.7-0.7c-1.1-0.5-2.1-1.2-2.9-2.1c-0.8-0.9-1.4-2.1-1.9-3.5c-0.4-1.4-0.7-3-0.7-4.9
			c0-1.5,0.2-2.9,0.6-4.3c0.4-1.3,1-2.5,1.8-3.4s1.8-1.8,3-2.3s2.6-0.8,4.3-0.8c1.1,0,2.1,0.1,3.1,0.4s1.8,0.7,2.6,1.2
			s1.4,1.2,1.9,2.1s0.9,1.8,1.1,2.9h-2c-0.2-0.8-0.5-1.5-0.9-2.1s-0.9-1.1-1.5-1.6c-0.6-0.4-1.2-0.7-1.9-1c-0.7-0.2-1.5-0.3-2.2-0.3
			c-1.4,0-2.6,0.2-3.5,0.7s-1.8,1.2-2.4,2c-0.6,0.9-1.1,1.9-1.4,3.2s-0.4,2.6-0.4,4c0,1.2,0.2,2.3,0.5,3.3s0.8,2,1.5,2.8
			s1.4,1.4,2.4,1.9c0.9,0.5,2,0.7,3.2,0.7c0.6,0,1.1-0.1,1.7-0.2s1.2-0.3,1.7-0.6s1.1-0.7,1.6-1.1c0.5-0.5,0.9-1,1.2-1.7
			c0.3-0.7,0.6-1.3,0.7-2.1c0.1-0.7,0.2-1.5,0.2-2.3L67.4,104.2L67.4,104.2z"/>
		<path class="sx5" d="M81.1,113.3V92.4h2v9h12.4v-9h2v20.9h-2v-10.2H83.1v10.2H81.1z"/>
		<path class="sx5" d="M100.2,92.4h15.2v1.7h-6.6v19.2h-2V94.1h-6.6V92.4L100.2,92.4z"/>
		<path class="sx5" d="M119,107.1c0.1,0.9,0.3,1.7,0.6,2.4c0.3,0.7,0.8,1.2,1.3,1.6s1.1,0.7,1.8,0.9c0.7,0.2,1.4,0.3,2.2,0.3
			c0.9,0,1.7-0.1,2.4-0.3c0.7-0.2,1.2-0.6,1.6-0.9c0.4-0.4,0.7-0.9,0.9-1.4s0.3-1.1,0.3-1.7c0-0.8-0.2-1.5-0.6-2
			c-0.4-0.5-0.9-0.9-1.4-1.2s-1.3-0.6-2-0.8c-0.8-0.2-1.6-0.4-2.4-0.6s-1.6-0.4-2.4-0.7s-1.4-0.6-2-1s-1.1-1-1.4-1.6
			s-0.6-1.5-0.6-2.5c0-0.7,0.1-1.4,0.4-2.1s0.7-1.3,1.3-1.8c0.6-0.5,1.3-0.9,2.2-1.2s1.9-0.5,3.1-0.5s2.2,0.2,3.1,0.5
			s1.6,0.8,2.2,1.3c0.6,0.6,1,1.2,1.3,2c0.3,0.8,0.4,1.6,0.4,2.4h-1.9c0-0.8-0.1-1.5-0.4-2.1s-0.7-1.1-1.1-1.4s-1-0.6-1.6-0.8
			s-1.3-0.3-1.9-0.3c-1,0-1.9,0.1-2.5,0.4c-0.7,0.3-1.2,0.6-1.6,1.1s-0.7,0.9-0.8,1.5s-0.2,1.1-0.1,1.6c0.1,0.7,0.4,1.2,0.8,1.6
			s0.9,0.7,1.6,1s1.3,0.5,2,0.6c0.7,0.2,1.5,0.3,2.3,0.5s1.5,0.4,2.2,0.7c0.7,0.2,1.4,0.6,1.9,1c0.6,0.4,1,1,1.4,1.6
			c0.3,0.7,0.5,1.5,0.5,2.5c0,1.9-0.7,3.4-2,4.5s-3.2,1.6-5.6,1.6c-1.1,0-2.1-0.1-3-0.4s-1.7-0.7-2.4-1.3c-0.7-0.6-1.2-1.3-1.6-2.1
			s-0.6-1.8-0.6-3L119,107.1L119,107.1z"/>
		<path class="sx5" d="M142.1,92.4h15.2v1.7h-6.6v19.2h-2V94.1h-6.6L142.1,92.4L142.1,92.4z"/>
		<path class="sx5" d="M160.1,113.3V92.4H174v1.7h-11.9v7.5h10.8v1.7h-10.8v8.3h12.2v1.7L160.1,113.3L160.1,113.3z"/>
		<path class="sx5" d="M175.9,113.3l8.2-20.9h2.2l8,20.9h-2l-2.4-6.6h-9.5l-2.5,6.6H175.9z M181.1,105.1h8.2l-4.1-11L181.1,105.1z"
			/>
		<path class="sx5" d="M197.1,113.3V92.4h3l6.8,18.4h0.1l6.7-18.4h3v20.9h-2V94.7h-0.1l-6.8,18.6H206l-6.9-18.6H199v18.6
			C199,113.3,197.1,113.3,197.1,113.3z"/>
	</g>
	<g>
		<path class="sx9" d="M7.4,283.9h9c1.8,0,3.2,0.5,4.3,1.5s1.6,2.4,1.6,4.2c0,1.6-0.5,2.9-1.5,4.1s-2.5,1.7-4.5,1.7h-6.2v8.5H7.4
			V283.9z M17.9,286.7c-0.6-0.3-1.4-0.4-2.5-0.4h-5.3v7h5.4c1.2,0,2.2-0.3,3-0.8s1.1-1.4,1.1-2.7C19.6,288.2,19,287.2,17.9,286.7z"
			/>
		<path class="sx9" d="M26.1,283.9h9.1c1.5,0,2.7,0.2,3.7,0.7c1.9,0.9,2.8,2.4,2.8,4.7c0,1.2-0.2,2.2-0.7,3s-1.2,1.4-2.1,1.8
			c0.8,0.3,1.4,0.7,1.8,1.3s0.6,1.4,0.7,2.5l0.1,2.7c0,0.8,0.1,1.3,0.2,1.7c0.2,0.6,0.5,1,0.9,1.2v0.5h-3.3
			c-0.1-0.2-0.2-0.4-0.2-0.7s-0.1-0.8-0.1-1.6l-0.2-3.3c-0.1-1.3-0.5-2.2-1.4-2.6c-0.5-0.2-1.3-0.4-2.4-0.4h-6v8.6h-2.7v-20.1H26.1z
			 M35,293.1c1.2,0,2.2-0.3,2.9-0.8s1.1-1.4,1.1-2.8s-0.5-2.4-1.5-2.9c-0.5-0.3-1.3-0.4-2.2-0.4h-6.5v6.9L35,293.1L35,293.1z"/>
		<path class="sx9" d="M62.6,286.8c1.3,1.8,2,4.1,2,6.8c0,3-0.8,5.5-2.3,7.5c-1.8,2.3-4.3,3.5-7.6,3.5c-3.1,0-5.5-1-7.3-3.1
			c-1.6-2-2.4-4.5-2.4-7.5c0-2.7,0.7-5,2-7c1.7-2.5,4.3-3.7,7.7-3.7C58.2,283.4,60.9,284.5,62.6,286.8z M60.2,299.6
			c1.1-1.7,1.6-3.7,1.6-5.9c0-2.4-0.6-4.3-1.9-5.7c-1.2-1.4-2.9-2.2-5.1-2.2c-2.1,0-3.8,0.7-5.1,2.1s-2,3.5-2,6.3
			c0,2.2,0.6,4.1,1.7,5.6c1.1,1.5,3,2.3,5.5,2.3C57.4,302.2,59.1,301.3,60.2,299.6z"/>
		<path class="sx9" d="M82.4,283.9v2.4h-6.8V304h-2.7v-17.7h-6.8v-2.4H82.4z"/>
		<path class="sx9" d="M85.2,283.9h14.6v2.5h-12v6.1h11v2.3h-11v6.8H100v2.4H85.2V283.9z"/>
		<path class="sx9" d="M117.8,285.4c1.4,1.3,2.2,2.9,2.3,4.6h-2.7c-0.3-1.3-0.9-2.3-1.8-3.1s-2.1-1.1-3.7-1.1
			c-1.9,0-3.5,0.7-4.7,2.1s-1.8,3.5-1.8,6.4c0,2.4,0.5,4.3,1.6,5.7c1.1,1.5,2.7,2.2,4.8,2.2c2,0,3.5-0.8,4.5-2.3
			c0.5-0.8,1-1.9,1.2-3.2h2.7c-0.2,2.1-1,3.9-2.3,5.3c-1.6,1.7-3.7,2.6-6.4,2.6c-2.3,0-4.2-0.7-5.8-2.1c-2.1-1.9-3.1-4.8-3.1-8.7
			c0-3,0.8-5.4,2.3-7.3c1.7-2.1,4-3.1,6.9-3.1C114.5,283.4,116.4,284,117.8,285.4z"/>
		<path class="sx9" d="M138.4,283.9v2.4h-6.8V304h-2.7v-17.7h-6.8v-2.4H138.4z"/>
		<path class="sx9" d="M141.2,283.9h14.6v2.5h-11.9v6.1h11v2.3h-11v6.8H156v2.4h-14.8V283.9z"/>
		<path class="sx9" d="M159.7,283.9h8c2.7,0,4.8,1,6.3,2.9c1.3,1.8,2,4,2,6.8c0,2.1-0.4,4.1-1.2,5.8c-1.4,3-3.8,4.6-7.2,4.6h-8
			L159.7,283.9L159.7,283.9z M167.2,301.7c0.9,0,1.6-0.1,2.2-0.3c1-0.4,1.9-1,2.5-2.1c0.5-0.8,0.9-1.9,1.1-3.1
			c0.1-0.8,0.2-1.5,0.2-2.1c0-2.5-0.5-4.4-1.5-5.8s-2.5-2.1-4.7-2.1h-4.7v15.4h4.9V301.7z"/>
		<path class="sx9" d="M204.1,286.8c1.3,1.8,2,4.1,2,6.8c0,3-0.8,5.5-2.3,7.5c-1.8,2.3-4.3,3.5-7.6,3.5c-3.1,0-5.5-1-7.3-3.1
			c-1.6-2-2.4-4.5-2.4-7.5c0-2.7,0.7-5,2-7c1.7-2.5,4.3-3.7,7.7-3.7C199.8,283.4,202.4,284.5,204.1,286.8z M201.7,299.6
			c1.1-1.7,1.6-3.7,1.6-5.9c0-2.4-0.6-4.3-1.9-5.7c-1.2-1.4-2.9-2.2-5.1-2.2c-2.1,0-3.8,0.7-5.1,2.1s-2,3.5-2,6.3
			c0,2.2,0.6,4.1,1.7,5.6c1.1,1.5,3,2.3,5.5,2.3C198.9,302.2,200.7,301.3,201.7,299.6z"/>
		<path class="sx9" d="M209.6,283.9h13.9v2.5h-11.2v6.1h9.9v2.4h-9.9v9.1h-2.7V283.9z"/>
		<path class="sx9" d="M226.7,283.9h13.9v2.5h-11.2v6.1h9.9v2.4h-9.9v9.1h-2.7V283.9z"/>
		<path class="sx9" d="M244.2,283.9h2.7V304h-2.7V283.9z"/>
		<path class="sx9" d="M265.6,285.4c1.4,1.3,2.2,2.9,2.3,4.6h-2.7c-0.3-1.3-0.9-2.3-1.8-3.1s-2.1-1.1-3.7-1.1
			c-1.9,0-3.5,0.7-4.7,2.1s-1.8,3.5-1.8,6.4c0,2.4,0.5,4.3,1.6,5.7c1.1,1.5,2.7,2.2,4.8,2.2c2,0,3.5-0.8,4.5-2.3
			c0.5-0.8,1-1.9,1.2-3.2h2.7c-0.2,2.1-1,3.9-2.3,5.3c-1.6,1.7-3.7,2.6-6.4,2.6c-2.3,0-4.2-0.7-5.8-2.1c-2.1-1.9-3.1-4.8-3.1-8.7
			c0-3,0.8-5.4,2.3-7.3c1.7-2.1,4-3.1,6.9-3.1C262.2,283.4,264.2,284,265.6,285.4z"/>
		<path class="sx9" d="M272.2,283.9h2.7V304h-2.7V283.9z"/>
		<path class="sx9" d="M285.2,283.9h3.1l7.3,20.1h-3l-2-6h-7.9l-2.2,6h-2.8L285.2,283.9z M289.7,295.8l-3-8.9l-3.2,8.9H289.7z"/>
		<path class="sx9" d="M298,283.9h2.7v17.7h10.1v2.4H298V283.9z"/>
		<path class="sx9" d="M321,283.9h2.7V304H321V283.9z"/>
		<path class="sx9" d="M328.1,283.9h3.2l10,16.2v-16.2h2.6V304h-3.1l-10.2-16.2V304H328v-20.1H328.1z"/>
		<path class="sx9" d="M363,283.9v2.4h-6.8V304h-2.7v-17.7h-6.8v-2.4H363z"/>
		<path class="sx9" d="M365.7,283.9h14.6v2.5h-11.9v6.1h11v2.3h-11v6.8h12.1v2.4h-14.8L365.7,283.9L365.7,283.9z"/>
		<path class="sx9" d="M384.5,283.9h9.1c1.5,0,2.7,0.2,3.7,0.7c1.9,0.9,2.8,2.4,2.8,4.7c0,1.2-0.2,2.2-0.7,3s-1.2,1.4-2.1,1.8
			c0.8,0.3,1.4,0.7,1.8,1.3s0.6,1.4,0.7,2.5l0.1,2.7c0,0.8,0.1,1.3,0.2,1.7c0.2,0.6,0.5,1,0.9,1.2v0.5h-3.3
			c-0.1-0.2-0.2-0.4-0.2-0.7s-0.1-0.8-0.1-1.6l-0.2-3.3c-0.1-1.3-0.5-2.2-1.4-2.6c-0.5-0.2-1.3-0.4-2.4-0.4h-6v8.6h-2.7v-20.1H384.5
			z M393.3,293.1c1.2,0,2.2-0.3,2.9-0.8c0.7-0.5,1.1-1.4,1.1-2.8s-0.5-2.4-1.5-2.9c-0.5-0.3-1.3-0.4-2.2-0.4h-6.5v6.9L393.3,293.1
			L393.3,293.1z"/>
		<path class="sx9" d="M404.4,283.9h3.2l10,16.2v-16.2h2.6V304h-3.1L407,287.8V304h-2.6V283.9z"/>
		<path class="sx9" d="M430.4,283.9h3.1l7.3,20.1h-3l-2-6h-7.9l-2.2,6h-2.8L430.4,283.9z M434.9,295.8l-3-8.9l-3.2,8.9H434.9z"/>
		<path class="sx9" d="M443.3,283.9h2.7v17.7h10v2.4h-12.8L443.3,283.9L443.3,283.9z"/>
		<path class="sx9" d="M468.5,283.9v12.4c0,1.5,0.3,2.7,0.8,3.6c0.8,1.5,2.2,2.2,4.1,2.2c2.3,0,3.9-0.8,4.7-2.4
			c0.5-0.9,0.7-2,0.7-3.5v-12.4h2.7v11.3c0,2.5-0.3,4.4-1,5.7c-1.2,2.4-3.5,3.6-6.9,3.6s-5.7-1.2-6.9-3.6c-0.7-1.3-1-3.2-1-5.7
			v-11.3L468.5,283.9L468.5,283.9z"/>
		<path class="sx9" d="M487.6,297.5c0.1,1.1,0.3,2.1,0.8,2.8c0.9,1.3,2.4,2,4.6,2c1,0,1.9-0.1,2.7-0.4c1.6-0.6,2.3-1.6,2.3-3
			c0-1.1-0.3-1.9-1-2.3c-0.7-0.5-1.7-0.9-3.2-1.2l-2.6-0.6c-1.7-0.4-2.9-0.8-3.7-1.3c-1.2-0.8-1.9-2.1-1.9-3.8
			c0-1.8,0.6-3.3,1.8-4.4c1.2-1.2,2.9-1.7,5.2-1.7c2,0,3.8,0.5,5.2,1.5s2.1,2.6,2.1,4.9h-2.6c-0.1-1.1-0.4-1.9-0.8-2.5
			c-0.8-1-2.1-1.6-4-1.6c-1.5,0-2.6,0.3-3.3,1s-1,1.5-1,2.4c0,1,0.4,1.7,1.2,2.2c0.5,0.3,1.7,0.7,3.5,1.1l2.7,0.6
			c1.3,0.3,2.3,0.7,3,1.3c1.2,0.9,1.9,2.3,1.9,4.1c0,2.2-0.8,3.8-2.4,4.8s-3.4,1.4-5.5,1.4c-2.4,0-4.3-0.6-5.7-1.9
			c-1.4-1.3-2.1-3-2-5.2h2.7V297.5z"/>
		<path class="sx9" d="M504.7,283.9h14.6v2.5h-11.9v6.1h11v2.3h-11v6.8h12.1v2.4h-14.8V283.9z"/>
		<path class="sx9" d="M547.5,286.8c1.3,1.8,2,4.1,2,6.8c0,3-0.8,5.5-2.3,7.5c-1.8,2.3-4.3,3.5-7.6,3.5c-3.1,0-5.5-1-7.3-3.1
			c-1.6-2-2.4-4.5-2.4-7.5c0-2.7,0.7-5,2-7c1.7-2.5,4.3-3.7,7.7-3.7C543.1,283.4,545.8,284.5,547.5,286.8z M545.1,299.6
			c1.1-1.7,1.6-3.7,1.6-5.9c0-2.4-0.6-4.3-1.9-5.7s-2.9-2.2-5.1-2.2c-2.1,0-3.8,0.7-5.1,2.1s-2,3.5-2,6.3c0,2.2,0.6,4.1,1.7,5.6
			c1.1,1.5,3,2.3,5.5,2.3C542.3,302.2,544,301.3,545.1,299.6z"/>
		<path class="sx9" d="M552.7,283.9h3.2l10,16.2v-16.2h2.6V304h-3.1l-10.2-16.2V304h-2.6L552.7,283.9L552.7,283.9z"/>
		<path class="sx9" d="M572.9,283.9h2.7v17.7h10.1v2.4h-12.8V283.9z"/>
		<path class="sx9" d="M584.9,283.9h3.2l5.8,9.7l5.8-9.7h3.2l-7.6,12v8.1h-2.7v-8.1L584.9,283.9z"/>
		<path class="sx9" d="M611.4,294.9h6.9v2.5h-6.9V294.9z"/>
		<path class="sx9" d="M629.6,283.9h8c2.7,0,4.8,1,6.3,2.9c1.3,1.8,2,4,2,6.8c0,2.1-0.4,4.1-1.2,5.8c-1.4,3-3.8,4.6-7.2,4.6h-8
			v-20.1H629.6z M637.1,301.7c0.9,0,1.6-0.1,2.2-0.3c1-0.4,1.9-1,2.5-2.1c0.5-0.8,0.9-1.9,1.1-3.1c0.1-0.8,0.2-1.5,0.2-2.1
			c0-2.5-0.5-4.4-1.5-5.8s-2.5-2.1-4.7-2.1h-4.7v15.4h4.9V301.7z"/>
		<path class="sx9" d="M650.1,283.9h9.1c1.5,0,2.7,0.2,3.7,0.7c1.9,0.9,2.8,2.4,2.8,4.7c0,1.2-0.2,2.2-0.7,3s-1.2,1.4-2.1,1.8
			c0.8,0.3,1.4,0.7,1.8,1.3s0.6,1.4,0.7,2.5l0.1,2.7c0,0.8,0.1,1.3,0.2,1.7c0.2,0.6,0.5,1,0.9,1.2v0.5h-3.3
			c-0.1-0.2-0.2-0.4-0.2-0.7s-0.1-0.8-0.1-1.6l-0.2-3.3c-0.1-1.3-0.5-2.2-1.4-2.6c-0.5-0.2-1.3-0.4-2.4-0.4h-6v8.6h-2.7v-20.1H650.1
			z M658.9,293.1c1.2,0,2.2-0.3,2.9-0.8s1.1-1.4,1.1-2.8s-0.5-2.4-1.5-2.9c-0.5-0.3-1.3-0.4-2.2-0.4h-6.5v6.9L658.9,293.1
			L658.9,293.1z"/>
		<path class="sx9" d="M675.8,283.9h3.1l7.3,20.1h-3l-2-6h-7.9l-2.2,6h-2.8L675.8,283.9z M680.3,295.8l-3-8.9l-3.2,8.9H680.3z"/>
		<path class="sx9" d="M688.9,283.9h13.9v2.5h-11.2v6.1h9.9v2.4h-9.9v9.1h-2.7V283.9z"/>
		<path class="sx9" d="M720.3,283.9v2.4h-6.8V304h-2.7v-17.7H704v-2.4H720.3z"/>
	</g>
	<g>
		<path d="M8.6,195.4c0.6,1.1,1.3,2,2.3,2.7s2.1,1.2,3.4,1.4c1.3,0.3,2.7,0.4,4.2,0.4c0.9,0,1.8-0.1,2.8-0.4c1-0.2,2-0.6,2.8-1.2
			c0.9-0.5,1.6-1.2,2.2-2.1c0.6-0.8,0.9-1.9,0.9-3.1c0-0.9-0.2-1.7-0.6-2.4s-1-1.2-1.6-1.7c-0.7-0.5-1.4-0.8-2.2-1.1
			c-0.8-0.3-1.6-0.5-2.3-0.7l-7.3-1.8c-1-0.2-1.9-0.6-2.8-0.9c-0.9-0.4-1.7-0.9-2.4-1.5s-1.2-1.4-1.6-2.3c-0.4-0.9-0.6-2-0.6-3.3
			c0-0.8,0.2-1.7,0.5-2.8c0.3-1.1,0.9-2.1,1.7-3c0.8-1,2-1.8,3.5-2.4c1.5-0.7,3.4-1,5.7-1c1.6,0,3.2,0.2,4.6,0.6
			c1.5,0.4,2.8,1.1,3.9,1.9c1.1,0.9,2,1.9,2.6,3.2c0.7,1.3,1,2.8,1,4.4H26c-0.1-1.3-0.3-2.4-0.9-3.3c-0.5-0.9-1.2-1.7-2-2.3
			s-1.7-1.1-2.8-1.4c-1.1-0.3-2.2-0.5-3.3-0.5s-2.1,0.1-3.1,0.3s-1.9,0.6-2.6,1.1c-0.8,0.5-1.4,1.2-1.8,2c-0.5,0.8-0.7,1.9-0.7,3.1
			c0,0.8,0.1,1.4,0.4,2c0.3,0.6,0.6,1.1,1.1,1.4c0.5,0.4,1,0.7,1.6,1c0.6,0.2,1.2,0.4,1.9,0.6l8,2c1.2,0.3,2.3,0.7,3.3,1.1
			c1,0.4,1.9,1,2.7,1.7c0.8,0.7,1.4,1.5,1.8,2.4c0.4,1,0.7,2.1,0.7,3.5c0,0.4,0,0.9-0.1,1.5s-0.3,1.3-0.6,2
			c-0.3,0.7-0.7,1.4-1.2,2.1c-0.5,0.7-1.3,1.3-2.2,1.9c-0.9,0.6-2.1,1-3.5,1.4s-3,0.5-5,0.5s-3.7-0.2-5.4-0.7
			c-1.7-0.4-3.1-1.1-4.2-2c-1.2-0.9-2.1-2.1-2.7-3.5S4.5,193,4.6,191h3.1C7.8,192.9,8,194.3,8.6,195.4z"/>
		<path d="M38.1,169.2v20.3c0,1.9,0.2,3.5,0.6,4.9c0.4,1.3,1.1,2.4,1.9,3.3c0.8,0.8,1.8,1.5,3,1.8c1.2,0.4,2.5,0.6,4,0.6
			s2.9-0.2,4.1-0.6c1.2-0.4,2.2-1,3-1.8s1.5-1.9,1.9-3.3c0.4-1.3,0.6-3,0.6-4.9v-20.3h3.1v21c0,1.7-0.2,3.3-0.7,4.8s-1.2,2.8-2.3,4
			c-1,1.1-2.3,2-4,2.7c-1.6,0.7-3.6,1-5.9,1c-2.3,0-4.2-0.3-5.8-1s-2.9-1.6-4-2.7c-1-1.1-1.8-2.5-2.3-4s-0.7-3.1-0.7-4.8v-21H38.1z"
			/>
		<path d="M69.1,195.4c0.6,1.1,1.3,2,2.3,2.7s2.1,1.2,3.4,1.4c1.3,0.3,2.7,0.4,4.2,0.4c0.9,0,1.8-0.1,2.8-0.4c1-0.2,2-0.6,2.8-1.2
			c0.9-0.5,1.6-1.2,2.2-2.1c0.6-0.8,0.9-1.9,0.9-3.1c0-0.9-0.2-1.7-0.6-2.4s-1-1.2-1.6-1.7c-0.7-0.5-1.4-0.8-2.2-1.1
			c-0.8-0.3-1.6-0.5-2.3-0.7l-7.3-1.8c-1-0.2-1.9-0.6-2.8-0.9c-0.9-0.4-1.7-0.9-2.4-1.5c-0.7-0.6-1.2-1.4-1.6-2.3
			c-0.4-0.9-0.6-2-0.6-3.3c0-0.8,0.2-1.7,0.5-2.8s0.9-2.1,1.7-3c0.8-1,2-1.8,3.5-2.4c1.5-0.7,3.4-1,5.7-1c1.6,0,3.2,0.2,4.6,0.6
			c1.5,0.4,2.8,1.1,3.9,1.9c1.1,0.9,2,1.9,2.6,3.2c0.7,1.3,1,2.8,1,4.4h-3.1c-0.1-1.3-0.3-2.4-0.9-3.3c-0.5-0.9-1.2-1.7-2-2.3
			s-1.7-1.1-2.8-1.4c-1.1-0.3-2.2-0.5-3.3-0.5c-1.1,0-2.1,0.1-3.1,0.3s-1.9,0.6-2.6,1.1c-0.8,0.5-1.4,1.2-1.8,2
			c-0.5,0.8-0.7,1.9-0.7,3.1c0,0.8,0.1,1.4,0.4,2s0.6,1.1,1.1,1.4c0.5,0.4,1,0.7,1.6,1c0.6,0.2,1.2,0.4,1.9,0.6l8,2
			c1.2,0.3,2.3,0.7,3.3,1.1c1,0.4,1.9,1,2.7,1.7c0.8,0.7,1.4,1.5,1.8,2.4c0.4,1,0.7,2.1,0.7,3.5c0,0.4,0,0.9-0.1,1.5s-0.3,1.3-0.6,2
			c-0.3,0.7-0.7,1.4-1.2,2.1c-0.5,0.7-1.3,1.3-2.2,1.9c-0.9,0.6-2.1,1-3.5,1.4s-3,0.5-5,0.5s-3.7-0.2-5.4-0.7
			c-1.7-0.4-3.1-1.1-4.2-2c-1.2-0.9-2.1-2.1-2.7-3.5s-0.9-3.2-0.8-5.2h3.1C68.2,192.9,68.5,194.3,69.1,195.4z"/>
		<path d="M110.4,169.2c1.5,0,2.8,0.2,4,0.6s2.2,1,3.1,1.8s1.5,1.8,2,3s0.7,2.5,0.7,4s-0.2,2.8-0.7,4s-1.1,2.2-2,3s-1.9,1.4-3.1,1.8
			c-1.2,0.4-2.5,0.6-4,0.6H98.9v14h-3.1v-32.8H110.4z M109.7,185.3c2.2,0,3.9-0.6,5.3-1.7c1.3-1.1,2-2.8,2-5.1s-0.7-4-2-5.1
			c-1.4-1.1-3.1-1.7-5.3-1.7H98.9v13.4h10.8V185.3z"/>
		<path d="M128.1,169.2V202H125v-32.8H128.1z"/>
		<path d="M157.6,175.7c-0.6-1-1.4-1.8-2.3-2.5c-0.9-0.7-1.9-1.2-3-1.5c-1.1-0.4-2.2-0.5-3.4-0.5c-2.2,0-4,0.4-5.6,1.2
			s-2.8,1.9-3.8,3.3c-1,1.4-1.7,2.9-2.2,4.6c-0.5,1.7-0.7,3.5-0.7,5.3s0.2,3.5,0.7,5.3c0.5,1.7,1.2,3.3,2.2,4.6
			c1,1.4,2.3,2.5,3.8,3.3c1.6,0.8,3.4,1.2,5.6,1.2c1.5,0,2.9-0.3,4.1-0.8c1.2-0.6,2.3-1.3,3.2-2.3s1.6-2.1,2.2-3.3
			c0.6-1.3,0.9-2.6,1.1-4.1h3.1c-0.2,2-0.7,3.8-1.4,5.5c-0.7,1.6-1.7,3-2.9,4.1s-2.5,2-4.1,2.6s-3.3,0.9-5.3,0.9
			c-2.6,0-4.8-0.5-6.8-1.4c-1.9-0.9-3.6-2.2-4.9-3.7c-1.3-1.6-2.3-3.4-2.9-5.4c-0.6-2.1-1-4.2-1-6.5s0.3-4.4,1-6.5
			c0.6-2.1,1.6-3.9,2.9-5.5c1.3-1.6,2.9-2.8,4.9-3.8c1.9-0.9,4.2-1.4,6.8-1.4c1.6,0,3.1,0.2,4.6,0.7s2.8,1.1,4,2s2.2,2,3,3.3
			s1.3,2.8,1.5,4.6h-3C158.7,177.8,158.3,176.7,157.6,175.7z"/>
		<path d="M170.7,169.2V202h-3.1v-32.8H170.7z"/>
		<path d="M176.8,179.1c0.6-2.1,1.6-3.9,2.9-5.5c1.3-1.6,2.9-2.8,4.9-3.8c1.9-0.9,4.2-1.4,6.8-1.4s4.8,0.5,6.8,1.4
			c1.9,0.9,3.5,2.2,4.8,3.8s2.3,3.4,2.9,5.5c0.6,2.1,1,4.2,1,6.5s-0.3,4.4-1,6.5c-0.6,2.1-1.6,3.9-2.9,5.4c-1.3,1.6-2.9,2.8-4.8,3.7
			c-1.9,0.9-4.2,1.4-6.8,1.4s-4.8-0.5-6.8-1.4c-1.9-0.9-3.6-2.2-4.9-3.7c-1.3-1.6-2.3-3.4-2.9-5.4c-0.6-2.1-1-4.2-1-6.5
			S176.1,181.1,176.8,179.1z M179.7,190.8c0.5,1.7,1.2,3.3,2.2,4.6c1,1.4,2.3,2.5,3.8,3.3c1.6,0.8,3.4,1.2,5.6,1.2
			c2.2,0,4-0.4,5.6-1.2c1.5-0.8,2.8-1.9,3.8-3.3c1-1.4,1.7-2.9,2.2-4.6c0.5-1.7,0.7-3.5,0.7-5.3s-0.2-3.6-0.7-5.3s-1.2-3.3-2.2-4.6
			c-1-1.4-2.3-2.5-3.8-3.3s-3.4-1.2-5.6-1.2c-2.2,0-4,0.4-5.6,1.2s-2.8,1.9-3.8,3.3c-1,1.4-1.7,2.9-2.2,4.6
			c-0.5,1.7-0.7,3.5-0.7,5.3C178.9,187.4,179.2,189.1,179.7,190.8z"/>
		<path d="M214.5,169.2v20.3c0,1.9,0.2,3.5,0.6,4.9c0.4,1.3,1.1,2.4,1.9,3.3c0.8,0.8,1.8,1.5,3,1.8c1.2,0.4,2.5,0.6,4,0.6
			s2.9-0.2,4.1-0.6c1.2-0.4,2.2-1,3-1.8s1.5-1.9,1.9-3.3c0.4-1.3,0.6-3,0.6-4.9v-20.3h3.1v21c0,1.7-0.2,3.3-0.7,4.8s-1.2,2.8-2.3,4
			c-1,1.1-2.3,2-4,2.7c-1.6,0.7-3.6,1-5.9,1c-2.3,0-4.2-0.3-5.8-1s-2.9-1.6-4-2.7c-1-1.1-1.8-2.5-2.3-4s-0.7-3.1-0.7-4.8v-21H214.5z
			"/>
		<path d="M245.4,195.4c0.6,1.1,1.3,2,2.3,2.7s2.1,1.2,3.4,1.4c1.3,0.3,2.7,0.4,4.2,0.4c0.9,0,1.8-0.1,2.8-0.4c1-0.2,2-0.6,2.8-1.2
			c0.9-0.5,1.6-1.2,2.2-2.1c0.6-0.8,0.9-1.9,0.9-3.1c0-0.9-0.2-1.7-0.6-2.4s-1-1.2-1.6-1.7c-0.7-0.5-1.4-0.8-2.2-1.1
			c-0.8-0.3-1.6-0.5-2.3-0.7l-7.3-1.8c-1-0.2-1.9-0.6-2.8-0.9c-0.9-0.4-1.7-0.9-2.4-1.5s-1.2-1.4-1.6-2.3c-0.4-0.9-0.6-2-0.6-3.3
			c0-0.8,0.2-1.7,0.5-2.8s0.9-2.1,1.7-3c0.8-1,2-1.8,3.5-2.4c1.5-0.7,3.4-1,5.7-1c1.6,0,3.2,0.2,4.6,0.6c1.5,0.4,2.8,1.1,3.9,1.9
			c1.1,0.9,2,1.9,2.6,3.2c0.7,1.3,1,2.8,1,4.4H263c-0.1-1.3-0.3-2.4-0.9-3.3c-0.5-0.9-1.2-1.7-2-2.3s-1.7-1.1-2.8-1.4
			c-1.1-0.3-2.2-0.5-3.3-0.5s-2.1,0.1-3.1,0.3s-1.9,0.6-2.6,1.1c-0.8,0.5-1.4,1.2-1.8,2c-0.5,0.8-0.7,1.9-0.7,3.1
			c0,0.8,0.1,1.4,0.4,2c0.3,0.6,0.6,1.1,1.1,1.4c0.5,0.4,1,0.7,1.6,1c0.6,0.2,1.2,0.4,1.9,0.6l8,2c1.2,0.3,2.3,0.7,3.3,1.1
			c1,0.4,1.9,1,2.7,1.7c0.8,0.7,1.4,1.5,1.8,2.4c0.4,1,0.7,2.1,0.7,3.5c0,0.4,0,0.9-0.1,1.5s-0.3,1.3-0.6,2
			c-0.3,0.7-0.7,1.4-1.2,2.1c-0.5,0.7-1.3,1.3-2.2,1.9c-0.9,0.6-2.1,1-3.5,1.4s-3,0.5-5,0.5s-3.7-0.2-5.4-0.7
			c-1.7-0.4-3.1-1.1-4.2-2c-1.2-0.9-2.1-2.1-2.7-3.5c-0.6-1.4-0.9-3.2-0.8-5.2h3.1C244.6,192.9,244.9,194.3,245.4,195.4z"/>
		<path d="M289.4,169.2l10.9,28.8l11.3-28.8h4.6V202h-3.1v-28.4H313L301.8,202h-2.9l-10.8-28.4H288V202h-3.1v-32.8H289.4z"/>
		<path d="M335.8,169.2l12.9,32.8h-3.4l-4-10.2h-14.9l-4,10.2h-3.3l13.2-32.8H335.8z M340.3,189.1l-6.3-16.8l-6.6,16.8H340.3z"/>
		<path d="M371,169.2v2.7h-11.5V202h-3.1v-30.2H345v-2.7L371,169.2L371,169.2z"/>
		<path d="M396.6,169.2v2.7h-11.5V202H382v-30.2h-11.4v-2.7L396.6,169.2L396.6,169.2z"/>
		<path d="M422.4,169.2v2.7h-19.6v11.9h18.3v2.7h-18.3v13h19.8v2.7h-22.9v-32.8h22.7V169.2z"/>
		<path d="M442,169.2c1.3,0,2.6,0.2,3.8,0.5c1.2,0.3,2.3,0.9,3.2,1.5c0.9,0.7,1.6,1.6,2.2,2.7c0.5,1.1,0.8,2.4,0.8,3.8
			c0,2.1-0.5,3.9-1.6,5.4s-2.7,2.5-4.8,2.9v0.1c1.1,0.2,2,0.4,2.7,0.9c0.7,0.4,1.3,0.9,1.7,1.6c0.4,0.6,0.8,1.4,1,2.2
			s0.3,1.8,0.4,2.7c0,0.6,0.1,1.2,0.1,2s0.1,1.6,0.2,2.4c0.1,0.8,0.2,1.6,0.4,2.3c0.2,0.7,0.5,1.3,0.8,1.7h-3.5
			c-0.2-0.3-0.3-0.7-0.4-1.1c-0.1-0.4-0.2-0.9-0.2-1.4s-0.1-0.9-0.1-1.4s-0.1-0.9-0.1-1.2c-0.1-1.2-0.2-2.3-0.3-3.5
			c-0.1-1.1-0.4-2.2-0.9-3.1c-0.4-0.9-1.1-1.6-1.9-2.2c-0.8-0.6-2-0.8-3.5-0.7h-11.9V202H427v-32.8H442z M441.8,184.8
			c1,0,1.9-0.1,2.7-0.4c0.9-0.3,1.6-0.7,2.3-1.3c0.6-0.6,1.2-1.2,1.5-2c0.4-0.8,0.6-1.7,0.6-2.7c0-2-0.6-3.6-1.7-4.8
			c-1.2-1.2-2.9-1.7-5.3-1.7h-11.7v12.9H441.8z"/>
		<path d="M485.5,169.2c1.3,0,2.6,0.2,3.8,0.5c1.2,0.3,2.3,0.9,3.2,1.5c0.9,0.7,1.6,1.6,2.2,2.7c0.5,1.1,0.8,2.4,0.8,3.8
			c0,2.1-0.5,3.9-1.6,5.4s-2.7,2.5-4.8,2.9v0.1c1.1,0.2,2,0.4,2.7,0.9c0.7,0.4,1.3,0.9,1.7,1.6c0.4,0.6,0.8,1.4,1,2.2
			s0.3,1.8,0.4,2.7c0,0.6,0.1,1.2,0.1,2s0.1,1.6,0.2,2.4c0.1,0.8,0.2,1.6,0.4,2.3c0.2,0.7,0.5,1.3,0.8,1.7h-3.5
			c-0.2-0.3-0.3-0.7-0.4-1.1c-0.1-0.4-0.2-0.9-0.2-1.4s-0.1-0.9-0.1-1.4s-0.1-0.9-0.1-1.2c-0.1-1.2-0.2-2.3-0.3-3.5
			s-0.4-2.2-0.9-3.1c-0.4-0.9-1.1-1.6-1.9-2.2c-0.8-0.6-2-0.8-3.5-0.7h-11.9V202h-3.1v-32.8H485.5z M485.3,184.8
			c1,0,1.9-0.1,2.7-0.4c0.9-0.3,1.6-0.7,2.3-1.3c0.6-0.6,1.2-1.2,1.5-2c0.4-0.8,0.6-1.7,0.6-2.7c0-2-0.6-3.6-1.7-4.8
			c-1.2-1.2-2.9-1.7-5.3-1.7h-11.7v12.9H485.3z"/>
		<path d="M523.8,169.2v2.7h-19.5v11.9h18.3v2.7h-18.3v13H524v2.7h-22.9v-32.8h22.7V169.2z"/>
		<path d="M543,169.2c1.5,0,2.8,0.2,4,0.6c1.2,0.4,2.2,1,3.1,1.8s1.5,1.8,2,3s0.7,2.5,0.7,4s-0.2,2.8-0.7,4s-1.1,2.2-2,3
			s-1.9,1.4-3.1,1.8c-1.2,0.4-2.5,0.6-4,0.6h-11.5v14h-3.1v-32.8H543z M542.3,185.3c2.2,0,3.9-0.6,5.3-1.7c1.3-1.1,2-2.8,2-5.1
			s-0.7-4-2-5.1s-3.1-1.7-5.3-1.7h-10.8v13.4h10.8V185.3z"/>
		<path d="M556.6,179.1c0.6-2.1,1.6-3.9,2.9-5.5c1.3-1.6,2.9-2.8,4.9-3.8c1.9-0.9,4.2-1.4,6.8-1.4s4.8,0.5,6.8,1.4
			c1.9,0.9,3.5,2.2,4.8,3.8s2.3,3.4,2.9,5.5c0.6,2.1,1,4.2,1,6.5s-0.3,4.4-1,6.5c-0.6,2.1-1.6,3.9-2.9,5.4s-2.9,2.8-4.8,3.7
			c-1.9,0.9-4.2,1.4-6.8,1.4s-4.8-0.5-6.8-1.4c-1.9-0.9-3.6-2.2-4.9-3.7s-2.3-3.4-2.9-5.4c-0.6-2.1-1-4.2-1-6.5
			S556,181.1,556.6,179.1z M559.5,190.8c0.5,1.7,1.2,3.3,2.2,4.6c1,1.4,2.3,2.5,3.8,3.3c1.6,0.8,3.4,1.2,5.6,1.2
			c2.2,0,4-0.4,5.6-1.2c1.5-0.8,2.8-1.9,3.8-3.3c1-1.4,1.7-2.9,2.2-4.6c0.5-1.7,0.7-3.5,0.7-5.3s-0.2-3.6-0.7-5.3s-1.2-3.3-2.2-4.6
			c-1-1.4-2.3-2.5-3.8-3.3s-3.4-1.2-5.6-1.2c-2.2,0-4,0.4-5.6,1.2s-2.8,1.9-3.8,3.3c-1,1.4-1.7,2.9-2.2,4.6
			c-0.5,1.7-0.7,3.5-0.7,5.3C558.8,187.4,559,189.1,559.5,190.8z"/>
		<path d="M606.5,169.2c1.3,0,2.6,0.2,3.8,0.5s2.3,0.9,3.2,1.5c0.9,0.7,1.6,1.6,2.2,2.7c0.5,1.1,0.8,2.4,0.8,3.8
			c0,2.1-0.5,3.9-1.6,5.4s-2.7,2.5-4.8,2.9v0.1c1.1,0.2,2,0.4,2.7,0.9c0.7,0.4,1.3,0.9,1.7,1.6c0.4,0.6,0.8,1.4,1,2.2
			s0.3,1.8,0.4,2.7c0,0.6,0.1,1.2,0.1,2s0.1,1.6,0.2,2.4c0.1,0.8,0.2,1.6,0.4,2.3s0.5,1.3,0.8,1.7h-3.5c-0.2-0.3-0.3-0.7-0.4-1.1
			c-0.1-0.4-0.2-0.9-0.2-1.4s-0.1-0.9-0.1-1.4s-0.1-0.9-0.1-1.2c-0.1-1.2-0.2-2.3-0.3-3.5s-0.4-2.2-0.9-3.1
			c-0.4-0.9-1.1-1.6-1.9-2.2c-0.8-0.6-2-0.8-3.5-0.7h-11.9V202h-3.1v-32.8H606.5z M606.3,184.8c1,0,1.9-0.1,2.7-0.4
			c0.9-0.3,1.6-0.7,2.3-1.3c0.6-0.6,1.2-1.2,1.5-2c0.4-0.8,0.6-1.7,0.6-2.7c0-2-0.6-3.6-1.7-4.8c-1.2-1.2-2.9-1.7-5.3-1.7h-11.7
			v12.9H606.3z"/>
		<path d="M644.9,169.2v2.7h-11.5V202h-3.1v-30.2h-11.4v-2.7L644.9,169.2L644.9,169.2z"/>
	</g>
</g>
<path class="sx4" d="M961,104.4h-82.5c-1.6,0-3.1,0.6-4.2,1.8l-41.1,41.1c-1.1,1.1-1.8,2.7-1.8,4.2v10h-9.2c-1.6,0-3.1,0.6-4.2,1.8
	l-41.1,41.1c-1.1,1.1-1.8,2.7-1.8,4.2v82.5c0,7.2,5.9,13.1,13.1,13.1h20.7c1.6,0,3.1-0.6,4.2-1.8l39.5-39.5c1.1-1.1,1.8-2.7,1.8-4.2
	v-75h74.2c1.6,0,3.1-0.6,4.2-1.8l39.5-39.5c1.1-1.1,1.8-2.7,1.8-4.2v-20.7C974.1,110.3,968.2,104.4,961,104.4z M832.2,276.6
	c0,2.8-2.3,5.1-5.1,5.1h-24.9c-2.8,0-5.1-2.3-5.1-5.1v-87.4c0-2.8,2.3-5.1,5.1-5.1h24.9c2.8,0,5.1,2.3,5.1,5.1V276.6z M951.6,156.4
	c0,2.8-2.3,5.1-5.1,5.1H859c-2.8,0-5.1-2.3-5.1-5.1v-24.9c0-2.8,2.3-5.1,5.1-5.1h87.4c2.8,0,5.1,2.3,5.1,5.1V156.4z"/>
</svg>
